<svg width="396" height="235" viewBox="0 0 396 235" fill="none" xmlns="http://www.w3.org/2000/svg">
<g filter="url(#filter0_d_14_700)">
<rect x="4" width="388" height="227" rx="10" fill="#ECE8E2" fill-opacity="0.5" shape-rendering="crispEdges"/>
</g>
<path d="M78.2842 47.2393C79.0225 47.2393 79.681 47.1094 80.2598 46.8496C80.8385 46.5853 81.3125 46.2161 81.6816 45.7422C82.0508 45.2682 82.2832 44.7145 82.3789 44.0811L82.3857 44.0469H80.8545L80.8408 44.0742C80.7542 44.4434 80.5924 44.7646 80.3555 45.0381C80.1185 45.307 79.8223 45.5143 79.4668 45.6602C79.1159 45.806 78.724 45.8789 78.291 45.8789C77.6986 45.8789 77.1859 45.724 76.7529 45.4141C76.3245 45.1042 75.9919 44.6644 75.7549 44.0947C75.5225 43.5251 75.4062 42.8529 75.4062 42.0781V42.0645C75.4062 41.2806 75.5225 40.6061 75.7549 40.041C75.9919 39.4714 76.3245 39.0316 76.7529 38.7217C77.1859 38.4118 77.6963 38.2568 78.2842 38.2568C78.7171 38.2568 79.109 38.3389 79.46 38.5029C79.8109 38.667 80.1071 38.8971 80.3486 39.1934C80.5902 39.4896 80.7565 39.8405 80.8477 40.2461L80.8545 40.2734H82.3789V40.2324C82.2969 39.5807 82.0667 39.0042 81.6885 38.5029C81.3148 38.0016 80.834 37.6097 80.2461 37.3271C79.6628 37.04 79.0088 36.8965 78.2842 36.8965C77.3682 36.8965 76.5775 37.1061 75.9121 37.5254C75.2467 37.9447 74.734 38.5394 74.374 39.3096C74.014 40.0798 73.834 40.998 73.834 42.0645V42.0781C73.834 43.14 74.014 44.056 74.374 44.8262C74.734 45.5964 75.2467 46.1911 75.9121 46.6104C76.582 47.0296 77.3727 47.2393 78.2842 47.2393ZM84.3646 47H85.848V42.5635C85.848 42.2035 85.9278 41.8936 86.0873 41.6338C86.2513 41.3695 86.4746 41.1644 86.7572 41.0186C87.0443 40.8727 87.377 40.7998 87.7552 40.7998C87.8965 40.7998 88.031 40.8066 88.1586 40.8203C88.2907 40.834 88.4229 40.8545 88.555 40.8818V39.5146C88.4821 39.4964 88.3864 39.4805 88.2679 39.4668C88.1494 39.4531 88.0287 39.4463 87.9056 39.4463C87.4134 39.4463 86.9987 39.5557 86.6615 39.7744C86.3288 39.9932 86.0964 40.3008 85.9642 40.6973H85.848V39.5762H84.3646V47ZM90.1443 47H91.6345V39.5762H90.1443V47ZM90.8962 38.25C91.1514 38.25 91.3702 38.1589 91.5525 37.9766C91.7348 37.7943 91.8259 37.5755 91.8259 37.3203C91.8259 37.0651 91.7348 36.8486 91.5525 36.6709C91.3702 36.4886 91.1514 36.3975 90.8962 36.3975C90.641 36.3975 90.4223 36.4886 90.24 36.6709C90.0577 36.8486 89.9665 37.0651 89.9665 37.3203C89.9665 37.5755 90.0577 37.7943 90.24 37.9766C90.4223 38.1589 90.641 38.25 90.8962 38.25ZM93.9278 47H95.4112V42.4404C95.4112 42.1169 95.4796 41.8252 95.6163 41.5654C95.753 41.3011 95.9376 41.0915 96.17 40.9365C96.407 40.7816 96.6736 40.7041 96.9698 40.7041C97.4073 40.7041 97.7537 40.8294 98.0089 41.0801C98.2686 41.3262 98.3985 41.6611 98.3985 42.085V47H99.8819V42.3037C99.8819 42.0029 99.9457 41.734 100.073 41.4971C100.205 41.2555 100.388 41.0641 100.62 40.9229C100.857 40.777 101.133 40.7041 101.447 40.7041C101.93 40.7041 102.288 40.8317 102.521 41.0869C102.758 41.3421 102.876 41.7249 102.876 42.2354V47H104.359V41.8799C104.359 41.3649 104.266 40.9251 104.079 40.5605C103.892 40.196 103.621 39.918 103.266 39.7266C102.91 39.5306 102.482 39.4326 101.981 39.4326C101.643 39.4326 101.324 39.4873 101.024 39.5967C100.727 39.7061 100.468 39.861 100.244 40.0615C100.021 40.2575 99.8477 40.4899 99.7247 40.7588H99.6085C99.4991 40.4899 99.3464 40.2575 99.1505 40.0615C98.9591 39.861 98.7289 39.7061 98.46 39.5967C98.1912 39.4873 97.8881 39.4326 97.5509 39.4326C97.0632 39.4326 96.644 39.5443 96.293 39.7676C95.9467 39.9909 95.6915 40.3076 95.5274 40.7178H95.4112V39.5762H93.9278V47ZM109.695 47.1436C110.173 47.1436 110.595 47.082 110.959 46.959C111.329 46.8359 111.643 46.6742 111.903 46.4736C112.167 46.2731 112.379 46.0521 112.539 45.8105C112.698 45.5645 112.81 45.3184 112.873 45.0723L112.887 45.0107H111.452L111.424 45.0654C111.37 45.193 111.267 45.3229 111.117 45.4551C110.971 45.5872 110.782 45.6989 110.549 45.79C110.321 45.8766 110.048 45.9199 109.729 45.9199C109.314 45.9199 108.954 45.8288 108.649 45.6465C108.348 45.4642 108.116 45.1999 107.952 44.8535C107.788 44.5072 107.706 44.0902 107.706 43.6025V43.0078C107.706 42.4974 107.788 42.0667 107.952 41.7158C108.12 41.3649 108.348 41.1006 108.635 40.9229C108.927 40.7406 109.257 40.6494 109.626 40.6494C109.996 40.6494 110.321 40.736 110.604 40.9092C110.886 41.0824 111.108 41.3444 111.267 41.6953C111.431 42.0417 111.513 42.4792 111.513 43.0078V43.6025L112.224 42.6182H106.96V43.6777H112.962V43.1582C112.962 42.4108 112.828 41.7591 112.559 41.2031C112.29 40.6426 111.905 40.2074 111.404 39.8975C110.907 39.5876 110.312 39.4326 109.62 39.4326C108.931 39.4326 108.33 39.5944 107.815 39.918C107.304 40.2415 106.908 40.6927 106.625 41.2715C106.347 41.8503 106.208 42.527 106.208 43.3018V43.3086C106.208 44.0924 106.347 44.7715 106.625 45.3457C106.908 45.9199 107.309 46.3643 107.829 46.6787C108.348 46.9886 108.97 47.1436 109.695 47.1436ZM125.903 47H127.694V46.9932L122.115 41.0732C121.828 40.7633 121.603 40.5059 121.439 40.3008C121.275 40.0911 121.156 39.9043 121.083 39.7402C121.01 39.5762 120.974 39.4121 120.974 39.248V39.2344C120.974 38.9974 121.028 38.79 121.138 38.6123C121.247 38.43 121.395 38.2887 121.582 38.1885C121.774 38.0882 121.99 38.0381 122.232 38.0381C122.482 38.0381 122.701 38.0882 122.888 38.1885C123.075 38.2887 123.221 38.4277 123.325 38.6055C123.435 38.7832 123.489 38.9906 123.489 39.2275V39.2412C123.489 39.5739 123.366 39.877 123.12 40.1504C122.879 40.4193 122.439 40.7155 121.801 41.0391L122.56 41.8252C123.389 41.3923 123.975 40.9684 124.317 40.5537C124.658 40.1344 124.829 39.6742 124.829 39.1729V39.1592C124.829 38.7262 124.718 38.3434 124.494 38.0107C124.271 37.6735 123.963 37.4092 123.571 37.2178C123.18 37.0264 122.731 36.9307 122.225 36.9307C121.723 36.9307 121.275 37.0264 120.878 37.2178C120.482 37.4092 120.169 37.6735 119.942 38.0107C119.714 38.348 119.6 38.7331 119.6 39.166V39.1797C119.6 39.4121 119.643 39.6445 119.73 39.877C119.816 40.1048 119.96 40.3577 120.16 40.6357C120.361 40.9137 120.634 41.2396 120.981 41.6133L125.903 47ZM121.897 47.1846C122.703 47.1846 123.407 47.0524 124.009 46.7881C124.611 46.5192 125.114 46.1501 125.52 45.6807C125.939 45.1885 126.251 44.612 126.456 43.9512C126.661 43.2904 126.764 42.568 126.764 41.7842V41.5039H125.417V41.7295C125.417 42.3128 125.351 42.8574 125.219 43.3633C125.087 43.8691 124.886 44.3158 124.617 44.7031C124.43 44.9629 124.212 45.1908 123.961 45.3867C123.71 45.5827 123.426 45.7331 123.107 45.8379C122.788 45.9427 122.432 45.9951 122.04 45.9951C121.635 45.9951 121.277 45.9245 120.967 45.7832C120.657 45.6374 120.416 45.4346 120.242 45.1748C120.069 44.915 119.983 44.6165 119.983 44.2793V44.2656C119.983 43.8919 120.094 43.5524 120.318 43.2471C120.545 42.9417 120.874 42.6842 121.302 42.4746L121.801 42.2285L121.022 41.374L120.454 41.6611C119.798 41.9938 119.31 42.3835 118.991 42.8301C118.677 43.2767 118.52 43.7939 118.52 44.3818V44.3955C118.52 44.9424 118.661 45.4277 118.944 45.8516C119.226 46.2708 119.62 46.599 120.126 46.8359C120.637 47.0684 121.227 47.1846 121.897 47.1846ZM136.553 47.2393C137.318 47.2393 137.984 47.1139 138.549 46.8633C139.114 46.6126 139.549 46.2594 139.854 45.8037C140.164 45.3434 140.319 44.7988 140.319 44.1699V44.1631C140.319 43.4339 140.091 42.8506 139.636 42.4131C139.184 41.9756 138.442 41.6475 137.407 41.4287L136.327 41.1895C135.694 41.0527 135.236 40.8636 134.953 40.6221C134.675 40.376 134.536 40.0706 134.536 39.7061V39.6992C134.536 39.3893 134.623 39.125 134.796 38.9062C134.974 38.6875 135.213 38.5212 135.514 38.4072C135.814 38.2887 136.156 38.2295 136.539 38.2295C136.935 38.2249 137.282 38.2842 137.578 38.4072C137.879 38.5257 138.118 38.6898 138.296 38.8994C138.478 39.109 138.59 39.3483 138.631 39.6172L138.644 39.7061H140.141L140.135 39.6172C140.098 39.1022 139.927 38.6396 139.622 38.2295C139.321 37.8193 138.909 37.4958 138.385 37.2588C137.865 37.0173 137.257 36.8965 136.559 36.8965C135.862 36.8965 135.245 37.0173 134.707 37.2588C134.169 37.5003 133.748 37.8376 133.442 38.2705C133.141 38.7035 132.989 39.2048 132.984 39.7744V39.7812C132.984 40.5104 133.212 41.1097 133.668 41.5791C134.124 42.0439 134.85 42.3835 135.849 42.5977L136.929 42.8232C137.58 42.9645 138.05 43.1605 138.337 43.4111C138.624 43.6618 138.767 43.9762 138.767 44.3545V44.3613C138.767 44.6621 138.674 44.9287 138.487 45.1611C138.305 45.3936 138.052 45.5758 137.728 45.708C137.405 45.8402 137.036 45.9062 136.621 45.9062C136.179 45.9062 135.785 45.8447 135.438 45.7217C135.097 45.5986 134.823 45.4277 134.618 45.209C134.418 44.9902 134.301 44.7327 134.269 44.4365L134.263 44.3613H132.752L132.759 44.4502C132.804 45.0016 132.987 45.487 133.306 45.9062C133.625 46.3255 134.06 46.6536 134.611 46.8906C135.163 47.123 135.81 47.2393 136.553 47.2393ZM144.301 47.123C144.629 47.123 144.932 47.0775 145.21 46.9863C145.488 46.8952 145.737 46.763 145.955 46.5898C146.174 46.4121 146.356 46.1979 146.502 45.9473H146.612V47H148.088V41.9209C148.088 41.4014 147.974 40.957 147.746 40.5879C147.523 40.2142 147.193 39.9294 146.755 39.7334C146.322 39.5329 145.794 39.4326 145.169 39.4326C144.609 39.4326 144.11 39.5169 143.672 39.6855C143.239 39.8542 142.888 40.0911 142.619 40.3965C142.355 40.6973 142.193 41.0527 142.134 41.4629L142.127 41.5107H143.556L143.57 41.4902C143.656 41.2259 143.829 41.0208 144.089 40.875C144.353 40.7292 144.693 40.6562 145.108 40.6562C145.604 40.6562 145.978 40.7656 146.229 40.9844C146.484 41.1986 146.612 41.5107 146.612 41.9209V44.2588C146.612 44.5778 146.53 44.8649 146.365 45.1201C146.201 45.3708 145.974 45.5713 145.682 45.7217C145.395 45.8675 145.067 45.9404 144.698 45.9404C144.301 45.9404 143.973 45.8447 143.713 45.6533C143.453 45.4574 143.323 45.1908 143.323 44.8535V44.8398C143.323 44.5072 143.444 44.2497 143.686 44.0674C143.927 43.8805 144.303 43.7712 144.814 43.7393L147.35 43.5752V42.5293L144.609 42.6934C143.725 42.748 143.041 42.9645 142.558 43.3428C142.079 43.7165 141.84 44.236 141.84 44.9014V44.915C141.84 45.3617 141.947 45.7513 142.161 46.084C142.376 46.4167 142.667 46.6742 143.036 46.8564C143.41 47.0342 143.832 47.123 144.301 47.123ZM150.846 47H152.33V40.7451H153.957V39.5762H152.316V38.8652C152.316 38.4915 152.403 38.2067 152.576 38.0107C152.754 37.8148 153.047 37.7168 153.458 37.7168C153.572 37.7168 153.676 37.7214 153.772 37.7305C153.872 37.735 153.957 37.7441 154.025 37.7578V36.6641C153.893 36.6413 153.754 36.6253 153.608 36.6162C153.467 36.6025 153.314 36.5957 153.15 36.5957C152.375 36.5957 151.796 36.778 151.414 37.1426C151.035 37.5072 150.846 38.0586 150.846 38.7969V39.5762H149.623V40.7451H150.846V47ZM158.595 47.1436C159.073 47.1436 159.495 47.082 159.859 46.959C160.228 46.8359 160.543 46.6742 160.803 46.4736C161.067 46.2731 161.279 46.0521 161.438 45.8105C161.598 45.5645 161.71 45.3184 161.773 45.0723L161.787 45.0107H160.352L160.324 45.0654C160.269 45.193 160.167 45.3229 160.017 45.4551C159.871 45.5872 159.682 45.6989 159.449 45.79C159.221 45.8766 158.948 45.9199 158.629 45.9199C158.214 45.9199 157.854 45.8288 157.549 45.6465C157.248 45.4642 157.016 45.1999 156.852 44.8535C156.687 44.5072 156.605 44.0902 156.605 43.6025V43.0078C156.605 42.4974 156.687 42.0667 156.852 41.7158C157.02 41.3649 157.248 41.1006 157.535 40.9229C157.827 40.7406 158.157 40.6494 158.526 40.6494C158.895 40.6494 159.221 40.736 159.504 40.9092C159.786 41.0824 160.007 41.3444 160.167 41.6953C160.331 42.0417 160.413 42.4792 160.413 43.0078V43.6025L161.124 42.6182H155.86V43.6777H161.862V43.1582C161.862 42.4108 161.728 41.7591 161.459 41.2031C161.19 40.6426 160.805 40.2074 160.304 39.8975C159.807 39.5876 159.212 39.4326 158.519 39.4326C157.831 39.4326 157.23 39.5944 156.715 39.918C156.204 40.2415 155.808 40.6927 155.525 41.2715C155.247 41.8503 155.108 42.527 155.108 43.3018V43.3086C155.108 44.0924 155.247 44.7715 155.525 45.3457C155.808 45.9199 156.209 46.3643 156.728 46.6787C157.248 46.9886 157.87 47.1436 158.595 47.1436ZM166.569 47.0479C166.715 47.0479 166.856 47.0387 166.993 47.0205C167.129 47.0068 167.257 46.9909 167.375 46.9727V45.7832C167.27 45.7923 167.177 45.7992 167.095 45.8037C167.018 45.8083 166.924 45.8105 166.815 45.8105C166.446 45.8105 166.181 45.724 166.022 45.5508C165.862 45.373 165.783 45.0837 165.783 44.6826V40.7451H167.375V39.5762H165.783V37.7031H164.265V39.5762H163.103V40.7451H164.265V45.0449C164.265 45.7559 164.445 46.2686 164.805 46.583C165.17 46.8929 165.757 47.0479 166.569 47.0479ZM169.976 49.6113C170.482 49.6113 170.91 49.5407 171.261 49.3994C171.612 49.2581 171.915 49.0166 172.171 48.6748C172.426 48.3376 172.658 47.8727 172.868 47.2803L175.63 39.5762H174.064L171.972 46.2686L172.43 45.5029H171.863L172.328 46.2686L170.229 39.5762H168.623L171.316 47.0068L171.207 47.3896C171.097 47.7633 170.936 48.0299 170.721 48.1895C170.507 48.3535 170.227 48.4355 169.881 48.4355C169.799 48.4355 169.712 48.4333 169.621 48.4287C169.534 48.4242 169.454 48.4173 169.382 48.4082V49.5771C169.477 49.5863 169.577 49.5931 169.682 49.5977C169.787 49.6068 169.885 49.6113 169.976 49.6113Z" fill="black"/>
<path d="M274.4 102.239C275.262 102.239 276.011 102.071 276.649 101.733C277.287 101.392 277.782 100.913 278.133 100.298C278.484 99.6781 278.659 98.9512 278.659 98.1172V96.8936H274.605V98.1309H277.142L277.135 98.3496C277.13 98.8555 277.014 99.2975 276.786 99.6758C276.558 100.054 276.239 100.35 275.829 100.564C275.424 100.774 274.952 100.879 274.414 100.879C273.799 100.879 273.266 100.726 272.814 100.421C272.363 100.111 272.015 99.6712 271.769 99.1016C271.522 98.5273 271.399 97.8483 271.399 97.0645V97.0508C271.399 96.276 271.52 95.6061 271.762 95.041C272.008 94.4714 272.354 94.0316 272.801 93.7217C273.247 93.4118 273.774 93.2568 274.38 93.2568C275.054 93.2568 275.619 93.4141 276.075 93.7285C276.535 94.043 276.852 94.4919 277.025 95.0752L277.046 95.1436H278.584L278.577 95.0752C278.459 94.4372 278.21 93.8812 277.832 93.4072C277.454 92.9287 276.971 92.5573 276.383 92.293C275.795 92.0286 275.127 91.8965 274.38 91.8965C273.464 91.8965 272.664 92.1084 271.98 92.5322C271.297 92.9561 270.768 93.5553 270.395 94.3301C270.021 95.1003 269.834 96.0094 269.834 97.0576V97.0713C269.834 98.124 270.019 99.04 270.388 99.8193C270.761 100.594 271.29 101.191 271.974 101.61C272.657 102.03 273.466 102.239 274.4 102.239ZM283.878 102.144C284.607 102.144 285.232 101.989 285.751 101.679C286.275 101.369 286.679 100.927 286.961 100.353C287.248 99.7738 287.392 99.0879 287.392 98.2949V98.2812C287.392 97.4837 287.248 96.7979 286.961 96.2236C286.679 95.6449 286.275 95.2028 285.751 94.8975C285.227 94.5876 284.603 94.4326 283.878 94.4326C283.158 94.4326 282.534 94.5876 282.005 94.8975C281.481 95.2074 281.076 95.6494 280.788 96.2236C280.506 96.7979 280.365 97.4837 280.365 98.2812V98.2949C280.365 99.0879 280.506 99.7738 280.788 100.353C281.071 100.927 281.474 101.369 281.998 101.679C282.527 101.989 283.154 102.144 283.878 102.144ZM283.878 100.899C283.454 100.899 283.094 100.797 282.798 100.592C282.502 100.382 282.274 100.084 282.115 99.6963C281.96 99.3089 281.882 98.8418 281.882 98.2949V98.2812C281.882 97.7298 281.96 97.2604 282.115 96.873C282.274 96.4857 282.502 96.1895 282.798 95.9844C283.094 95.7747 283.454 95.6699 283.878 95.6699C284.302 95.6699 284.662 95.7747 284.958 95.9844C285.255 96.1895 285.48 96.4857 285.635 96.873C285.79 97.2604 285.868 97.7298 285.868 98.2812V98.2949C285.868 98.8418 285.79 99.3089 285.635 99.6963C285.48 100.084 285.255 100.382 284.958 100.592C284.662 100.797 284.302 100.899 283.878 100.899ZM292.44 102.144C293.169 102.144 293.794 101.989 294.313 101.679C294.837 101.369 295.241 100.927 295.523 100.353C295.81 99.7738 295.954 99.0879 295.954 98.2949V98.2812C295.954 97.4837 295.81 96.7979 295.523 96.2236C295.241 95.6449 294.837 95.2028 294.313 94.8975C293.789 94.5876 293.165 94.4326 292.44 94.4326C291.72 94.4326 291.096 94.5876 290.567 94.8975C290.043 95.2074 289.637 95.6494 289.35 96.2236C289.068 96.7979 288.926 97.4837 288.926 98.2812V98.2949C288.926 99.0879 289.068 99.7738 289.35 100.353C289.633 100.927 290.036 101.369 290.56 101.679C291.089 101.989 291.716 102.144 292.44 102.144ZM292.44 100.899C292.016 100.899 291.656 100.797 291.36 100.592C291.064 100.382 290.836 100.084 290.676 99.6963C290.522 99.3089 290.444 98.8418 290.444 98.2949V98.2812C290.444 97.7298 290.522 97.2604 290.676 96.873C290.836 96.4857 291.064 96.1895 291.36 95.9844C291.656 95.7747 292.016 95.6699 292.44 95.6699C292.864 95.6699 293.224 95.7747 293.52 95.9844C293.816 96.1895 294.042 96.4857 294.197 96.873C294.352 97.2604 294.429 97.7298 294.429 98.2812V98.2949C294.429 98.8418 294.352 99.3089 294.197 99.6963C294.042 100.084 293.816 100.382 293.52 100.592C293.224 100.797 292.864 100.899 292.44 100.899ZM300.565 102.123C301.089 102.123 301.547 102.009 301.939 101.781C302.33 101.553 302.634 101.237 302.848 100.831H302.957V102H304.447V91.6641H302.957V95.752H302.848C302.652 95.3509 302.349 95.0342 301.939 94.8018C301.533 94.5648 301.075 94.4463 300.565 94.4463C299.936 94.4463 299.391 94.6035 298.931 94.918C298.47 95.2279 298.115 95.6699 297.864 96.2441C297.614 96.8184 297.488 97.4974 297.488 98.2812V98.2949C297.488 99.0742 297.614 99.751 297.864 100.325C298.12 100.899 298.477 101.344 298.938 101.658C299.402 101.968 299.945 102.123 300.565 102.123ZM300.988 100.852C300.578 100.852 300.223 100.749 299.922 100.544C299.626 100.339 299.398 100.045 299.238 99.6621C299.083 99.2793 299.006 98.8236 299.006 98.2949V98.2812C299.006 97.748 299.083 97.2923 299.238 96.9141C299.398 96.5312 299.626 96.2373 299.922 96.0322C300.223 95.8226 300.578 95.7178 300.988 95.7178C301.399 95.7178 301.752 95.8226 302.048 96.0322C302.349 96.2373 302.579 96.5312 302.738 96.9141C302.902 97.2969 302.984 97.7526 302.984 98.2812V98.2949C302.984 98.819 302.905 99.2747 302.745 99.6621C302.586 100.045 302.356 100.339 302.055 100.544C301.754 100.749 301.399 100.852 300.988 100.852ZM311.269 102H312.753V95.7451H314.38V94.5762H312.739V93.8652C312.739 93.4915 312.826 93.2067 312.999 93.0107C313.177 92.8148 313.471 92.7168 313.881 92.7168C313.995 92.7168 314.099 92.7214 314.195 92.7305C314.295 92.735 314.38 92.7441 314.448 92.7578V91.6641C314.316 91.6413 314.177 91.6253 314.031 91.6162C313.89 91.6025 313.737 91.5957 313.573 91.5957C312.798 91.5957 312.22 91.778 311.837 92.1426C311.458 92.5072 311.269 93.0586 311.269 93.7969V94.5762H310.046V95.7451H311.269V102ZM319.045 102.144C319.774 102.144 320.399 101.989 320.918 101.679C321.442 101.369 321.846 100.927 322.128 100.353C322.415 99.7738 322.559 99.0879 322.559 98.2949V98.2812C322.559 97.4837 322.415 96.7979 322.128 96.2236C321.846 95.6449 321.442 95.2028 320.918 94.8975C320.394 94.5876 319.77 94.4326 319.045 94.4326C318.325 94.4326 317.701 94.5876 317.172 94.8975C316.648 95.2074 316.242 95.6494 315.955 96.2236C315.673 96.7979 315.531 97.4837 315.531 98.2812V98.2949C315.531 99.0879 315.673 99.7738 315.955 100.353C316.238 100.927 316.641 101.369 317.165 101.679C317.694 101.989 318.32 102.144 319.045 102.144ZM319.045 100.899C318.621 100.899 318.261 100.797 317.965 100.592C317.669 100.382 317.441 100.084 317.281 99.6963C317.126 99.3089 317.049 98.8418 317.049 98.2949V98.2812C317.049 97.7298 317.126 97.2604 317.281 96.873C317.441 96.4857 317.669 96.1895 317.965 95.9844C318.261 95.7747 318.621 95.6699 319.045 95.6699C319.469 95.6699 319.829 95.7747 320.125 95.9844C320.421 96.1895 320.647 96.4857 320.802 96.873C320.957 97.2604 321.034 97.7298 321.034 98.2812V98.2949C321.034 98.8418 320.957 99.3089 320.802 99.6963C320.647 100.084 320.421 100.382 320.125 100.592C319.829 100.797 319.469 100.899 319.045 100.899ZM324.462 102H325.946V97.5635C325.946 97.2035 326.026 96.8936 326.185 96.6338C326.349 96.3695 326.572 96.1644 326.855 96.0186C327.142 95.8727 327.475 95.7998 327.853 95.7998C327.994 95.7998 328.129 95.8066 328.256 95.8203C328.389 95.834 328.521 95.8545 328.653 95.8818V94.5146C328.58 94.4964 328.484 94.4805 328.366 94.4668C328.247 94.4531 328.126 94.4463 328.003 94.4463C327.511 94.4463 327.097 94.5557 326.759 94.7744C326.427 94.9932 326.194 95.3008 326.062 95.6973H325.946V94.5762H324.462V102ZM335.113 98.6299H338.189C338.836 98.6299 339.403 98.4954 339.891 98.2266C340.383 97.9531 340.768 97.5726 341.046 97.085C341.324 96.5928 341.463 96.0254 341.463 95.3828V95.3691C341.463 94.7266 341.324 94.1637 341.046 93.6807C340.768 93.193 340.383 92.8148 339.891 92.5459C339.403 92.2725 338.836 92.1357 338.189 92.1357H335.113V93.4277H337.806C338.471 93.4277 338.986 93.5986 339.351 93.9404C339.72 94.2822 339.905 94.763 339.905 95.3828V95.3965C339.905 96.0072 339.72 96.4857 339.351 96.832C338.986 97.1738 338.471 97.3447 337.806 97.3447H335.113V98.6299ZM334.347 102H335.878V92.1357H334.347V102ZM346.32 102.144C346.798 102.144 347.22 102.082 347.585 101.959C347.954 101.836 348.268 101.674 348.528 101.474C348.792 101.273 349.004 101.052 349.164 100.811C349.323 100.564 349.435 100.318 349.499 100.072L349.512 100.011H348.077L348.049 100.065C347.995 100.193 347.892 100.323 347.742 100.455C347.596 100.587 347.407 100.699 347.174 100.79C346.947 100.877 346.673 100.92 346.354 100.92C345.939 100.92 345.579 100.829 345.274 100.646C344.973 100.464 344.741 100.2 344.577 99.8535C344.413 99.5072 344.331 99.0902 344.331 98.6025V98.0078C344.331 97.4974 344.413 97.0667 344.577 96.7158C344.745 96.3649 344.973 96.1006 345.26 95.9229C345.552 95.7406 345.882 95.6494 346.252 95.6494C346.621 95.6494 346.947 95.736 347.229 95.9092C347.512 96.0824 347.733 96.3444 347.892 96.6953C348.056 97.0417 348.138 97.4792 348.138 98.0078V98.6025L348.849 97.6182H343.586V98.6777H349.588V98.1582C349.588 97.4108 349.453 96.7591 349.184 96.2031C348.915 95.6426 348.53 95.2074 348.029 94.8975C347.532 94.5876 346.937 94.4326 346.245 94.4326C345.557 94.4326 344.955 94.5944 344.44 94.918C343.93 95.2415 343.533 95.6927 343.251 96.2715C342.973 96.8503 342.834 97.527 342.834 98.3018V98.3086C342.834 99.0924 342.973 99.7715 343.251 100.346C343.533 100.92 343.934 101.364 344.454 101.679C344.973 101.989 345.595 102.144 346.32 102.144ZM354.294 102.048C354.44 102.048 354.581 102.039 354.718 102.021C354.854 102.007 354.982 101.991 355.101 101.973V100.783C354.996 100.792 354.902 100.799 354.82 100.804C354.743 100.808 354.649 100.811 354.54 100.811C354.171 100.811 353.907 100.724 353.747 100.551C353.588 100.373 353.508 100.084 353.508 99.6826V95.7451H355.101V94.5762H353.508V92.7031H351.99V94.5762H350.828V95.7451H351.99V100.045C351.99 100.756 352.17 101.269 352.53 101.583C352.895 101.893 353.483 102.048 354.294 102.048ZM359.568 102.144C360.16 102.144 360.687 102.048 361.147 101.856C361.612 101.66 361.979 101.389 362.247 101.043C362.516 100.692 362.651 100.289 362.651 99.833V99.8193C362.651 99.2816 362.475 98.8532 362.124 98.5342C361.778 98.2152 361.249 97.9714 360.538 97.8027L359.356 97.5361C358.941 97.4359 358.643 97.3105 358.46 97.1602C358.278 97.0098 358.187 96.8184 358.187 96.5859V96.5723C358.187 96.3717 358.246 96.1986 358.365 96.0527C358.488 95.9023 358.654 95.7861 358.864 95.7041C359.073 95.6175 359.312 95.5742 359.581 95.5742C360.001 95.5742 360.338 95.6608 360.593 95.834C360.853 96.0072 361.017 96.2236 361.085 96.4834V96.4971H362.507V96.4902C362.462 96.0846 362.316 95.7292 362.07 95.4238C361.824 95.1139 361.489 94.8724 361.065 94.6992C360.645 94.5215 360.153 94.4326 359.588 94.4326C359.028 94.4326 358.529 94.5283 358.091 94.7197C357.658 94.9066 357.319 95.1686 357.073 95.5059C356.826 95.8385 356.703 96.2214 356.703 96.6543V96.6611C356.703 97.2035 356.87 97.641 357.202 97.9736C357.54 98.3018 358.057 98.5456 358.754 98.7051L359.944 98.9785C360.372 99.0788 360.68 99.2087 360.867 99.3682C361.053 99.5277 361.147 99.7236 361.147 99.9561V99.9697C361.147 100.17 361.081 100.348 360.949 100.503C360.816 100.658 360.634 100.779 360.402 100.865C360.174 100.952 359.907 100.995 359.602 100.995C359.16 100.995 358.804 100.909 358.535 100.735C358.267 100.562 358.084 100.337 357.989 100.059V100.045H356.498V100.059C356.544 100.473 356.697 100.838 356.956 101.152C357.216 101.462 357.567 101.706 358.009 101.884C358.451 102.057 358.971 102.144 359.568 102.144Z" fill="black"/>
<path d="M78.4414 157.239C79.3893 157.239 80.2074 157.027 80.8955 156.604C81.5882 156.18 82.1191 155.583 82.4883 154.812C82.8574 154.038 83.042 153.124 83.042 152.071V152.058C83.042 151 82.8551 150.087 82.4814 149.316C82.1123 148.542 81.5837 147.945 80.8955 147.525C80.2074 147.106 79.3893 146.896 78.4414 146.896C77.498 146.896 76.68 147.106 75.9873 147.525C75.2992 147.945 74.7682 148.539 74.3945 149.31C74.0208 150.08 73.834 150.996 73.834 152.058V152.071C73.834 153.124 74.0186 154.038 74.3877 154.812C74.7568 155.587 75.2855 156.187 75.9736 156.61C76.6618 157.03 77.4844 157.239 78.4414 157.239ZM78.4414 155.879C77.8079 155.879 77.2633 155.722 76.8076 155.407C76.3564 155.093 76.0078 154.651 75.7617 154.081C75.5202 153.507 75.3994 152.837 75.3994 152.071V152.058C75.3994 151.283 75.5247 150.611 75.7754 150.041C76.026 149.471 76.377 149.032 76.8281 148.722C77.2839 148.412 77.8216 148.257 78.4414 148.257C79.0612 148.257 79.599 148.412 80.0547 148.722C80.5104 149.032 80.8613 149.471 81.1074 150.041C81.3535 150.611 81.4766 151.283 81.4766 152.058V152.071C81.4766 152.837 81.3535 153.507 81.1074 154.081C80.8613 154.651 80.5104 155.093 80.0547 155.407C79.599 155.722 79.0612 155.879 78.4414 155.879ZM87.5638 157.144C88.1061 157.144 88.5619 157.032 88.931 156.809C89.3002 156.585 89.5736 156.275 89.7513 155.879H89.8607V157H91.3509V149.576H89.8607V153.931C89.8607 154.327 89.7923 154.671 89.6556 154.963C89.5189 155.25 89.3138 155.473 89.0404 155.633C88.7715 155.788 88.4411 155.865 88.0492 155.865C87.5023 155.865 87.1081 155.713 86.8666 155.407C86.625 155.102 86.5043 154.644 86.5043 154.033V149.576H85.0209V154.382C85.0209 154.965 85.1143 155.464 85.3011 155.879C85.4925 156.289 85.7774 156.604 86.1556 156.822C86.5384 157.036 87.0078 157.144 87.5638 157.144ZM96.4265 157.048C96.5723 157.048 96.7136 157.039 96.8503 157.021C96.987 157.007 97.1146 156.991 97.2331 156.973V155.783C97.1283 155.792 97.0349 155.799 96.9529 155.804C96.8754 155.808 96.782 155.811 96.6726 155.811C96.3034 155.811 96.0391 155.724 95.8796 155.551C95.7201 155.373 95.6404 155.084 95.6404 154.683V150.745H97.2331V149.576H95.6404V147.703H94.1228V149.576H92.9607V150.745H94.1228V155.045C94.1228 155.756 94.3028 156.269 94.6628 156.583C95.0274 156.893 95.6153 157.048 96.4265 157.048ZM101.734 157.123C102.259 157.123 102.717 157.009 103.108 156.781C103.5 156.553 103.803 156.237 104.018 155.831H104.127V157H105.617V146.664H104.127V150.752H104.018C103.822 150.351 103.519 150.034 103.108 149.802C102.703 149.565 102.245 149.446 101.734 149.446C101.106 149.446 100.561 149.604 100.101 149.918C99.6404 150.228 99.2849 150.67 99.0343 151.244C98.7836 151.818 98.6583 152.497 98.6583 153.281V153.295C98.6583 154.074 98.7836 154.751 99.0343 155.325C99.2895 155.899 99.6472 156.344 100.108 156.658C100.572 156.968 101.115 157.123 101.734 157.123ZM102.158 155.852C101.748 155.852 101.393 155.749 101.092 155.544C100.796 155.339 100.568 155.045 100.408 154.662C100.253 154.279 100.176 153.824 100.176 153.295V153.281C100.176 152.748 100.253 152.292 100.408 151.914C100.568 151.531 100.796 151.237 101.092 151.032C101.393 150.823 101.748 150.718 102.158 150.718C102.568 150.718 102.922 150.823 103.218 151.032C103.519 151.237 103.749 151.531 103.908 151.914C104.072 152.297 104.154 152.753 104.154 153.281V153.295C104.154 153.819 104.075 154.275 103.915 154.662C103.756 155.045 103.525 155.339 103.225 155.544C102.924 155.749 102.568 155.852 102.158 155.852ZM111.103 157.144C111.832 157.144 112.456 156.989 112.976 156.679C113.5 156.369 113.903 155.927 114.186 155.353C114.473 154.774 114.617 154.088 114.617 153.295V153.281C114.617 152.484 114.473 151.798 114.186 151.224C113.903 150.645 113.5 150.203 112.976 149.897C112.452 149.588 111.828 149.433 111.103 149.433C110.383 149.433 109.759 149.588 109.23 149.897C108.706 150.207 108.3 150.649 108.013 151.224C107.731 151.798 107.589 152.484 107.589 153.281V153.295C107.589 154.088 107.731 154.774 108.013 155.353C108.296 155.927 108.699 156.369 109.223 156.679C109.752 156.989 110.378 157.144 111.103 157.144ZM111.103 155.899C110.679 155.899 110.319 155.797 110.023 155.592C109.727 155.382 109.499 155.084 109.339 154.696C109.184 154.309 109.107 153.842 109.107 153.295V153.281C109.107 152.73 109.184 152.26 109.339 151.873C109.499 151.486 109.727 151.189 110.023 150.984C110.319 150.775 110.679 150.67 111.103 150.67C111.527 150.67 111.887 150.775 112.183 150.984C112.479 151.189 112.705 151.486 112.86 151.873C113.015 152.26 113.092 152.73 113.092 153.281V153.295C113.092 153.842 113.015 154.309 112.86 154.696C112.705 155.084 112.479 155.382 112.183 155.592C111.887 155.797 111.527 155.899 111.103 155.899ZM119.665 157.144C120.394 157.144 121.018 156.989 121.538 156.679C122.062 156.369 122.465 155.927 122.748 155.353C123.035 154.774 123.179 154.088 123.179 153.295V153.281C123.179 152.484 123.035 151.798 122.748 151.224C122.465 150.645 122.062 150.203 121.538 149.897C121.014 149.588 120.389 149.433 119.665 149.433C118.945 149.433 118.32 149.588 117.792 149.897C117.268 150.207 116.862 150.649 116.575 151.224C116.292 151.798 116.151 152.484 116.151 153.281V153.295C116.151 154.088 116.292 154.774 116.575 155.353C116.858 155.927 117.261 156.369 117.785 156.679C118.314 156.989 118.94 157.144 119.665 157.144ZM119.665 155.899C119.241 155.899 118.881 155.797 118.585 155.592C118.289 155.382 118.061 155.084 117.901 154.696C117.746 154.309 117.669 153.842 117.669 153.295V153.281C117.669 152.73 117.746 152.26 117.901 151.873C118.061 151.486 118.289 151.189 118.585 150.984C118.881 150.775 119.241 150.67 119.665 150.67C120.089 150.67 120.449 150.775 120.745 150.984C121.041 151.189 121.267 151.486 121.422 151.873C121.577 152.26 121.654 152.73 121.654 153.281V153.295C121.654 153.842 121.577 154.309 121.422 154.696C121.267 155.084 121.041 155.382 120.745 155.592C120.449 155.797 120.089 155.899 119.665 155.899ZM125.082 157H126.566V152.563C126.566 152.203 126.645 151.894 126.805 151.634C126.969 151.369 127.192 151.164 127.475 151.019C127.762 150.873 128.095 150.8 128.473 150.8C128.614 150.8 128.749 150.807 128.876 150.82C129.008 150.834 129.14 150.854 129.273 150.882V149.515C129.2 149.496 129.104 149.48 128.986 149.467C128.867 149.453 128.746 149.446 128.623 149.446C128.131 149.446 127.716 149.556 127.379 149.774C127.046 149.993 126.814 150.301 126.682 150.697H126.566V149.576H125.082V157ZM134.208 157H135.821L138.542 148.865H139.007V147.136H137.769L134.208 157ZM135.924 154.334H141.276L140.846 153.104H136.354L135.924 154.334ZM141.372 157H142.985L139.431 147.136H138.658V148.865L141.372 157ZM147.384 157.144C147.999 157.144 148.526 157.041 148.963 156.836C149.405 156.626 149.758 156.339 150.023 155.975C150.287 155.61 150.462 155.186 150.549 154.703L150.563 154.642L149.141 154.648L149.127 154.683C149.009 155.084 148.804 155.387 148.512 155.592C148.225 155.797 147.849 155.899 147.384 155.899C146.978 155.899 146.628 155.795 146.331 155.585C146.035 155.371 145.807 155.068 145.648 154.676C145.488 154.284 145.408 153.814 145.408 153.268V153.254C145.408 152.721 145.486 152.26 145.641 151.873C145.8 151.486 146.028 151.189 146.324 150.984C146.621 150.775 146.974 150.67 147.384 150.67C147.876 150.67 148.27 150.793 148.567 151.039C148.863 151.281 149.052 151.584 149.134 151.948L149.141 151.962H150.57L150.563 151.928C150.494 151.449 150.326 151.023 150.057 150.649C149.793 150.271 149.435 149.975 148.984 149.761C148.537 149.542 148.002 149.433 147.377 149.433C146.657 149.433 146.035 149.588 145.511 149.897C144.991 150.207 144.59 150.647 144.308 151.217C144.03 151.786 143.891 152.465 143.891 153.254V153.268C143.891 154.07 144.032 154.76 144.315 155.339C144.597 155.918 144.998 156.364 145.518 156.679C146.042 156.989 146.664 157.144 147.384 157.144ZM155.296 157.048C155.442 157.048 155.584 157.039 155.72 157.021C155.857 157.007 155.985 156.991 156.103 156.973V155.783C155.998 155.792 155.905 155.799 155.823 155.804C155.745 155.808 155.652 155.811 155.543 155.811C155.173 155.811 154.909 155.724 154.75 155.551C154.59 155.373 154.51 155.084 154.51 154.683V150.745H156.103V149.576H154.51V147.703H152.993V149.576H151.831V150.745H152.993V155.045C152.993 155.756 153.173 156.269 153.533 156.583C153.897 156.893 154.485 157.048 155.296 157.048ZM158 157H159.49V149.576H158V157ZM158.752 148.25C159.007 148.25 159.226 148.159 159.408 147.977C159.59 147.794 159.682 147.576 159.682 147.32C159.682 147.065 159.59 146.849 159.408 146.671C159.226 146.489 159.007 146.397 158.752 146.397C158.497 146.397 158.278 146.489 158.096 146.671C157.913 146.849 157.822 147.065 157.822 147.32C157.822 147.576 157.913 147.794 158.096 147.977C158.278 148.159 158.497 148.25 158.752 148.25ZM163.827 157H165.413L168.093 149.576H166.528L164.682 155.496H164.573L162.72 149.576H161.141L163.827 157ZM169.751 157H171.241V149.576H169.751V157ZM170.503 148.25C170.758 148.25 170.977 148.159 171.159 147.977C171.341 147.794 171.432 147.576 171.432 147.32C171.432 147.065 171.341 146.849 171.159 146.671C170.977 146.489 170.758 146.397 170.503 146.397C170.247 146.397 170.029 146.489 169.846 146.671C169.664 146.849 169.573 147.065 169.573 147.32C169.573 147.576 169.664 147.794 169.846 147.977C170.029 148.159 170.247 148.25 170.503 148.25ZM176.337 157.048C176.483 157.048 176.624 157.039 176.761 157.021C176.897 157.007 177.025 156.991 177.144 156.973V155.783C177.039 155.792 176.945 155.799 176.863 155.804C176.786 155.808 176.692 155.811 176.583 155.811C176.214 155.811 175.95 155.724 175.79 155.551C175.631 155.373 175.551 155.084 175.551 154.683V150.745H177.144V149.576H175.551V147.703H174.033V149.576H172.871V150.745H174.033V155.045C174.033 155.756 174.213 156.269 174.573 156.583C174.938 156.893 175.526 157.048 176.337 157.048ZM179.04 157H180.531V149.576H179.04V157ZM179.792 148.25C180.048 148.25 180.266 148.159 180.449 147.977C180.631 147.794 180.722 147.576 180.722 147.32C180.722 147.065 180.631 146.849 180.449 146.671C180.266 146.489 180.048 146.397 179.792 146.397C179.537 146.397 179.318 146.489 179.136 146.671C178.954 146.849 178.863 147.065 178.863 147.32C178.863 147.576 178.954 147.794 179.136 147.977C179.318 148.159 179.537 148.25 179.792 148.25ZM185.941 157.144C186.42 157.144 186.841 157.082 187.206 156.959C187.575 156.836 187.889 156.674 188.149 156.474C188.414 156.273 188.625 156.052 188.785 155.811C188.944 155.564 189.056 155.318 189.12 155.072L189.134 155.011H187.698L187.671 155.065C187.616 155.193 187.513 155.323 187.363 155.455C187.217 155.587 187.028 155.699 186.796 155.79C186.568 155.877 186.294 155.92 185.975 155.92C185.561 155.92 185.201 155.829 184.895 155.646C184.594 155.464 184.362 155.2 184.198 154.854C184.034 154.507 183.952 154.09 183.952 153.603V153.008C183.952 152.497 184.034 152.067 184.198 151.716C184.367 151.365 184.594 151.101 184.882 150.923C185.173 150.741 185.504 150.649 185.873 150.649C186.242 150.649 186.568 150.736 186.85 150.909C187.133 151.082 187.354 151.344 187.513 151.695C187.677 152.042 187.76 152.479 187.76 153.008V153.603L188.47 152.618H183.207V153.678H189.209V153.158C189.209 152.411 189.074 151.759 188.805 151.203C188.537 150.643 188.151 150.207 187.65 149.897C187.153 149.588 186.559 149.433 185.866 149.433C185.178 149.433 184.576 149.594 184.061 149.918C183.551 150.242 183.154 150.693 182.872 151.271C182.594 151.85 182.455 152.527 182.455 153.302V153.309C182.455 154.092 182.594 154.771 182.872 155.346C183.154 155.92 183.555 156.364 184.075 156.679C184.594 156.989 185.217 157.144 185.941 157.144ZM193.813 157.144C194.405 157.144 194.931 157.048 195.392 156.856C195.857 156.66 196.223 156.389 196.492 156.043C196.761 155.692 196.896 155.289 196.896 154.833V154.819C196.896 154.282 196.72 153.853 196.369 153.534C196.023 153.215 195.494 152.971 194.783 152.803L193.601 152.536C193.186 152.436 192.887 152.311 192.705 152.16C192.523 152.01 192.432 151.818 192.432 151.586V151.572C192.432 151.372 192.491 151.199 192.609 151.053C192.733 150.902 192.899 150.786 193.109 150.704C193.318 150.618 193.557 150.574 193.826 150.574C194.246 150.574 194.583 150.661 194.838 150.834C195.098 151.007 195.262 151.224 195.33 151.483V151.497H196.752V151.49C196.706 151.085 196.561 150.729 196.315 150.424C196.068 150.114 195.734 149.872 195.31 149.699C194.89 149.521 194.398 149.433 193.833 149.433C193.273 149.433 192.774 149.528 192.336 149.72C191.903 149.907 191.564 150.169 191.317 150.506C191.071 150.839 190.948 151.221 190.948 151.654V151.661C190.948 152.203 191.115 152.641 191.447 152.974C191.785 153.302 192.302 153.546 192.999 153.705L194.189 153.979C194.617 154.079 194.925 154.209 195.111 154.368C195.298 154.528 195.392 154.724 195.392 154.956V154.97C195.392 155.17 195.326 155.348 195.193 155.503C195.061 155.658 194.879 155.779 194.647 155.865C194.419 155.952 194.152 155.995 193.847 155.995C193.405 155.995 193.049 155.909 192.78 155.735C192.512 155.562 192.329 155.337 192.234 155.059V155.045H190.743V155.059C190.789 155.473 190.942 155.838 191.201 156.152C191.461 156.462 191.812 156.706 192.254 156.884C192.696 157.057 193.216 157.144 193.813 157.144Z" fill="black"/>
<path d="M78.2842 103.239C79.0225 103.239 79.681 103.109 80.2598 102.85C80.8385 102.585 81.3125 102.216 81.6816 101.742C82.0508 101.268 82.2832 100.715 82.3789 100.081L82.3857 100.047H80.8545L80.8408 100.074C80.7542 100.443 80.5924 100.765 80.3555 101.038C80.1185 101.307 79.8223 101.514 79.4668 101.66C79.1159 101.806 78.724 101.879 78.291 101.879C77.6986 101.879 77.1859 101.724 76.7529 101.414C76.3245 101.104 75.9919 100.664 75.7549 100.095C75.5225 99.5251 75.4062 98.8529 75.4062 98.0781V98.0645C75.4062 97.2806 75.5225 96.6061 75.7549 96.041C75.9919 95.4714 76.3245 95.0316 76.7529 94.7217C77.1859 94.4118 77.6963 94.2568 78.2842 94.2568C78.7171 94.2568 79.109 94.3389 79.46 94.5029C79.8109 94.667 80.1071 94.8971 80.3486 95.1934C80.5902 95.4896 80.7565 95.8405 80.8477 96.2461L80.8545 96.2734H82.3789V96.2324C82.2969 95.5807 82.0667 95.0042 81.6885 94.5029C81.3148 94.0016 80.834 93.6097 80.2461 93.3271C79.6628 93.04 79.0088 92.8965 78.2842 92.8965C77.3682 92.8965 76.5775 93.1061 75.9121 93.5254C75.2467 93.9447 74.734 94.5394 74.374 95.3096C74.014 96.0798 73.834 96.998 73.834 98.0645V98.0781C73.834 99.14 74.014 100.056 74.374 100.826C74.734 101.596 75.2467 102.191 75.9121 102.61C76.582 103.03 77.3727 103.239 78.2842 103.239ZM87.5091 103.144C88.2383 103.144 88.8627 102.989 89.3822 102.679C89.9063 102.369 90.3096 101.927 90.5921 101.353C90.8793 100.774 91.0228 100.088 91.0228 99.2949V99.2812C91.0228 98.4837 90.8793 97.7979 90.5921 97.2236C90.3096 96.6449 89.9063 96.2028 89.3822 95.8975C88.8581 95.5876 88.2338 95.4326 87.5091 95.4326C86.7891 95.4326 86.1647 95.5876 85.6361 95.8975C85.112 96.2074 84.7064 96.6494 84.4193 97.2236C84.1367 97.7979 83.9955 98.4837 83.9955 99.2812V99.2949C83.9955 100.088 84.1367 100.774 84.4193 101.353C84.7018 101.927 85.1052 102.369 85.6293 102.679C86.1579 102.989 86.7845 103.144 87.5091 103.144ZM87.5091 101.899C87.0853 101.899 86.7253 101.797 86.4291 101.592C86.1328 101.382 85.905 101.084 85.7455 100.696C85.5905 100.309 85.513 99.8418 85.513 99.2949V99.2812C85.513 98.7298 85.5905 98.2604 85.7455 97.873C85.905 97.4857 86.1328 97.1895 86.4291 96.9844C86.7253 96.7747 87.0853 96.6699 87.5091 96.6699C87.933 96.6699 88.293 96.7747 88.5892 96.9844C88.8854 97.1895 89.111 97.4857 89.266 97.873C89.4209 98.2604 89.4984 98.7298 89.4984 99.2812V99.2949C89.4984 99.8418 89.4209 100.309 89.266 100.696C89.111 101.084 88.8854 101.382 88.5892 101.592C88.293 101.797 87.933 101.899 87.5091 101.899ZM92.9265 103H94.4099V98.4404C94.4099 98.1169 94.4782 97.8252 94.615 97.5654C94.7517 97.3011 94.9363 97.0915 95.1687 96.9365C95.4057 96.7816 95.6723 96.7041 95.9685 96.7041C96.406 96.7041 96.7523 96.8294 97.0075 97.0801C97.2673 97.3262 97.3972 97.6611 97.3972 98.085V103H98.8806V98.3037C98.8806 98.0029 98.9444 97.734 99.072 97.4971C99.2042 97.2555 99.3864 97.0641 99.6189 96.9229C99.8558 96.777 100.132 96.7041 100.446 96.7041C100.929 96.7041 101.287 96.8317 101.519 97.0869C101.756 97.3421 101.875 97.7249 101.875 98.2354V103H103.358V97.8799C103.358 97.3649 103.265 96.9251 103.078 96.5605C102.891 96.196 102.62 95.918 102.264 95.7266C101.909 95.5306 101.481 95.4326 100.979 95.4326C100.642 95.4326 100.323 95.4873 100.022 95.5967C99.726 95.7061 99.4662 95.861 99.2429 96.0615C99.0196 96.2575 98.8464 96.4899 98.7234 96.7588H98.6071C98.4978 96.4899 98.3451 96.2575 98.1491 96.0615C97.9577 95.861 97.7276 95.7061 97.4587 95.5967C97.1898 95.4873 96.8868 95.4326 96.5495 95.4326C96.0619 95.4326 95.6426 95.5443 95.2917 95.7676C94.9454 95.9909 94.6902 96.3076 94.5261 96.7178H94.4099V95.5762H92.9265V103ZM105.576 103H107.06V98.4404C107.06 98.1169 107.128 97.8252 107.265 97.5654C107.401 97.3011 107.586 97.0915 107.818 96.9365C108.055 96.7816 108.322 96.7041 108.618 96.7041C109.056 96.7041 109.402 96.8294 109.657 97.0801C109.917 97.3262 110.047 97.6611 110.047 98.085V103H111.53V98.3037C111.53 98.0029 111.594 97.734 111.722 97.4971C111.854 97.2555 112.036 97.0641 112.269 96.9229C112.506 96.777 112.781 96.7041 113.096 96.7041C113.579 96.7041 113.937 96.8317 114.169 97.0869C114.406 97.3421 114.524 97.7249 114.524 98.2354V103H116.008V97.8799C116.008 97.3649 115.914 96.9251 115.728 96.5605C115.541 96.196 115.27 95.918 114.914 95.7266C114.559 95.5306 114.13 95.4326 113.629 95.4326C113.292 95.4326 112.973 95.4873 112.672 95.5967C112.376 95.7061 112.116 95.861 111.893 96.0615C111.669 96.2575 111.496 96.4899 111.373 96.7588H111.257C111.148 96.4899 110.995 96.2575 110.799 96.0615C110.608 95.861 110.377 95.7061 110.108 95.5967C109.84 95.4873 109.537 95.4326 109.199 95.4326C108.712 95.4326 108.292 95.5443 107.941 95.7676C107.595 95.9909 107.34 96.3076 107.176 96.7178H107.06V95.5762H105.576V103ZM120.701 103.144C121.243 103.144 121.699 103.032 122.068 102.809C122.437 102.585 122.71 102.275 122.888 101.879H122.998V103H124.488V95.5762H122.998V99.9307C122.998 100.327 122.929 100.671 122.792 100.963C122.656 101.25 122.451 101.473 122.177 101.633C121.908 101.788 121.578 101.865 121.186 101.865C120.639 101.865 120.245 101.713 120.003 101.407C119.762 101.102 119.641 100.644 119.641 100.033V95.5762H118.158V100.382C118.158 100.965 118.251 101.464 118.438 101.879C118.629 102.289 118.914 102.604 119.292 102.822C119.675 103.036 120.145 103.144 120.701 103.144ZM129.563 103.048C129.709 103.048 129.85 103.039 129.987 103.021C130.124 103.007 130.251 102.991 130.37 102.973V101.783C130.265 101.792 130.172 101.799 130.09 101.804C130.012 101.808 129.919 101.811 129.809 101.811C129.44 101.811 129.176 101.724 129.016 101.551C128.857 101.373 128.777 101.084 128.777 100.683V96.7451H130.37V95.5762H128.777V93.7031H127.26V95.5762H126.097V96.7451H127.26V101.045C127.26 101.756 127.44 102.269 127.8 102.583C128.164 102.893 128.752 103.048 129.563 103.048ZM135.281 103.144C135.76 103.144 136.181 103.082 136.546 102.959C136.915 102.836 137.23 102.674 137.489 102.474C137.754 102.273 137.966 102.052 138.125 101.811C138.285 101.564 138.396 101.318 138.46 101.072L138.474 101.011H137.038L137.011 101.065C136.956 101.193 136.854 101.323 136.703 101.455C136.557 101.587 136.368 101.699 136.136 101.79C135.908 101.877 135.635 101.92 135.316 101.92C134.901 101.92 134.541 101.829 134.236 101.646C133.935 101.464 133.702 101.2 133.538 100.854C133.374 100.507 133.292 100.09 133.292 99.6025V99.0078C133.292 98.4974 133.374 98.0667 133.538 97.7158C133.707 97.3649 133.935 97.1006 134.222 96.9229C134.514 96.7406 134.844 96.6494 135.213 96.6494C135.582 96.6494 135.908 96.736 136.191 96.9092C136.473 97.0824 136.694 97.3444 136.854 97.6953C137.018 98.0417 137.1 98.4792 137.1 99.0078V99.6025L137.811 98.6182H132.547V99.6777H138.549V99.1582C138.549 98.4108 138.415 97.7591 138.146 97.2031C137.877 96.6426 137.492 96.2074 136.99 95.8975C136.494 95.5876 135.899 95.4326 135.206 95.4326C134.518 95.4326 133.916 95.5944 133.402 95.918C132.891 96.2415 132.495 96.6927 132.212 97.2715C131.934 97.8503 131.795 98.527 131.795 99.3018V99.3086C131.795 100.092 131.934 100.771 132.212 101.346C132.495 101.92 132.896 102.364 133.415 102.679C133.935 102.989 134.557 103.144 135.281 103.144Z" fill="black"/>
<path d="M270.237 157H271.769V152.632H276.827V157H278.365V147.136H276.827V151.306H271.769V147.136H270.237V157ZM283.96 157.144C284.689 157.144 285.314 156.989 285.833 156.679C286.357 156.369 286.761 155.927 287.043 155.353C287.33 154.774 287.474 154.088 287.474 153.295V153.281C287.474 152.484 287.33 151.798 287.043 151.224C286.761 150.645 286.357 150.203 285.833 149.897C285.309 149.588 284.685 149.433 283.96 149.433C283.24 149.433 282.616 149.588 282.087 149.897C281.563 150.207 281.158 150.649 280.87 151.224C280.588 151.798 280.447 152.484 280.447 153.281V153.295C280.447 154.088 280.588 154.774 280.87 155.353C281.153 155.927 281.556 156.369 282.08 156.679C282.609 156.989 283.236 157.144 283.96 157.144ZM283.96 155.899C283.536 155.899 283.176 155.797 282.88 155.592C282.584 155.382 282.356 155.084 282.197 154.696C282.042 154.309 281.964 153.842 281.964 153.295V153.281C281.964 152.73 282.042 152.26 282.197 151.873C282.356 151.486 282.584 151.189 282.88 150.984C283.176 150.775 283.536 150.67 283.96 150.67C284.384 150.67 284.744 150.775 285.04 150.984C285.337 151.189 285.562 151.486 285.717 151.873C285.872 152.26 285.95 152.73 285.95 153.281V153.295C285.95 153.842 285.872 154.309 285.717 154.696C285.562 155.084 285.337 155.382 285.04 155.592C284.744 155.797 284.384 155.899 283.96 155.899ZM291.852 157.144C292.395 157.144 292.85 157.032 293.219 156.809C293.589 156.585 293.862 156.275 294.04 155.879H294.149V157H295.639V149.576H294.149V153.931C294.149 154.327 294.081 154.671 293.944 154.963C293.807 155.25 293.602 155.473 293.329 155.633C293.06 155.788 292.73 155.865 292.338 155.865C291.791 155.865 291.397 155.713 291.155 155.407C290.913 155.102 290.793 154.644 290.793 154.033V149.576H289.309V154.382C289.309 154.965 289.403 155.464 289.59 155.879C289.781 156.289 290.066 156.604 290.444 156.822C290.827 157.036 291.296 157.144 291.852 157.144ZM300.612 157.144C301.205 157.144 301.731 157.048 302.191 156.856C302.656 156.66 303.023 156.389 303.292 156.043C303.561 155.692 303.695 155.289 303.695 154.833V154.819C303.695 154.282 303.52 153.853 303.169 153.534C302.823 153.215 302.294 152.971 301.583 152.803L300.4 152.536C299.986 152.436 299.687 152.311 299.505 152.16C299.323 152.01 299.232 151.818 299.232 151.586V151.572C299.232 151.372 299.291 151.199 299.409 151.053C299.532 150.902 299.699 150.786 299.908 150.704C300.118 150.618 300.357 150.574 300.626 150.574C301.045 150.574 301.383 150.661 301.638 150.834C301.898 151.007 302.062 151.224 302.13 151.483V151.497H303.552V151.49C303.506 151.085 303.36 150.729 303.114 150.424C302.868 150.114 302.533 149.872 302.109 149.699C301.69 149.521 301.198 149.433 300.633 149.433C300.072 149.433 299.573 149.528 299.136 149.72C298.703 149.907 298.363 150.169 298.117 150.506C297.871 150.839 297.748 151.221 297.748 151.654V151.661C297.748 152.203 297.914 152.641 298.247 152.974C298.584 153.302 299.102 153.546 299.799 153.705L300.988 153.979C301.417 154.079 301.724 154.209 301.911 154.368C302.098 154.528 302.191 154.724 302.191 154.956V154.97C302.191 155.17 302.125 155.348 301.993 155.503C301.861 155.658 301.679 155.779 301.446 155.865C301.219 155.952 300.952 155.995 300.647 155.995C300.205 155.995 299.849 155.909 299.58 155.735C299.311 155.562 299.129 155.337 299.033 155.059V155.045H297.543V155.059C297.589 155.473 297.741 155.838 298.001 156.152C298.261 156.462 298.612 156.706 299.054 156.884C299.496 157.057 300.015 157.144 300.612 157.144ZM305.62 157H307.11V149.576H305.62V157ZM306.372 148.25C306.627 148.25 306.845 148.159 307.028 147.977C307.21 147.794 307.301 147.576 307.301 147.32C307.301 147.065 307.21 146.849 307.028 146.671C306.845 146.489 306.627 146.397 306.372 146.397C306.116 146.397 305.898 146.489 305.715 146.671C305.533 146.849 305.442 147.065 305.442 147.32C305.442 147.576 305.533 147.794 305.715 147.977C305.898 148.159 306.116 148.25 306.372 148.25ZM309.403 157H310.887V152.646C310.887 152.244 310.957 151.9 311.098 151.613C311.244 151.322 311.449 151.098 311.714 150.943C311.978 150.784 312.29 150.704 312.65 150.704C313.197 150.704 313.598 150.857 313.853 151.162C314.113 151.463 314.243 151.923 314.243 152.543V157H315.733V152.194C315.733 151.31 315.512 150.629 315.07 150.15C314.628 149.672 313.99 149.433 313.156 149.433C312.614 149.433 312.165 149.544 311.809 149.768C311.454 149.991 311.185 150.301 311.003 150.697H310.887V149.576H309.403V157ZM321.075 159.618C321.782 159.618 322.392 159.504 322.907 159.276C323.422 159.049 323.819 158.727 324.097 158.312C324.379 157.898 324.521 157.41 324.521 156.85V149.576H323.037V150.793H322.948C322.803 150.515 322.618 150.276 322.395 150.075C322.171 149.875 321.914 149.72 321.622 149.61C321.335 149.501 321.018 149.446 320.672 149.446C320.029 149.446 319.476 149.601 319.011 149.911C318.546 150.216 318.188 150.643 317.938 151.189C317.687 151.732 317.562 152.356 317.562 153.062V153.076C317.562 153.773 317.685 154.391 317.931 154.929C318.181 155.462 318.537 155.881 318.997 156.187C319.462 156.487 320.009 156.638 320.638 156.638C320.98 156.638 321.296 156.59 321.588 156.494C321.88 156.398 322.139 156.257 322.367 156.07C322.595 155.879 322.782 155.651 322.928 155.387H323.044V156.843C323.044 157.344 322.871 157.734 322.525 158.012C322.183 158.29 321.707 158.429 321.096 158.429C320.599 158.429 320.203 158.347 319.906 158.183C319.61 158.019 319.43 157.809 319.366 157.554L319.36 157.54H317.856L317.849 157.554C317.908 157.964 318.072 158.324 318.341 158.634C318.61 158.944 318.974 159.185 319.435 159.358C319.9 159.532 320.446 159.618 321.075 159.618ZM321.055 155.407C320.636 155.407 320.278 155.309 319.982 155.113C319.69 154.913 319.467 154.637 319.312 154.286C319.157 153.935 319.079 153.53 319.079 153.069V153.056C319.079 152.595 319.157 152.19 319.312 151.839C319.467 151.483 319.69 151.205 319.982 151.005C320.278 150.804 320.636 150.704 321.055 150.704C321.474 150.704 321.834 150.804 322.135 151.005C322.436 151.205 322.666 151.483 322.825 151.839C322.989 152.194 323.071 152.6 323.071 153.056V153.069C323.071 153.53 322.989 153.935 322.825 154.286C322.666 154.637 322.436 154.913 322.135 155.113C321.834 155.309 321.474 155.407 321.055 155.407Z" fill="black"/>
<path d="M274.284 46.2393C275.022 46.2393 275.681 46.1094 276.26 45.8496C276.839 45.5853 277.312 45.2161 277.682 44.7422C278.051 44.2682 278.283 43.7145 278.379 43.0811L278.386 43.0469H276.854L276.841 43.0742C276.754 43.4434 276.592 43.7646 276.355 44.0381C276.118 44.307 275.822 44.5143 275.467 44.6602C275.116 44.806 274.724 44.8789 274.291 44.8789C273.699 44.8789 273.186 44.724 272.753 44.4141C272.325 44.1042 271.992 43.6644 271.755 43.0947C271.522 42.5251 271.406 41.8529 271.406 41.0781V41.0645C271.406 40.2806 271.522 39.6061 271.755 39.041C271.992 38.4714 272.325 38.0316 272.753 37.7217C273.186 37.4118 273.696 37.2568 274.284 37.2568C274.717 37.2568 275.109 37.3389 275.46 37.5029C275.811 37.667 276.107 37.8971 276.349 38.1934C276.59 38.4896 276.757 38.8405 276.848 39.2461L276.854 39.2734H278.379V39.2324C278.297 38.5807 278.067 38.0042 277.688 37.5029C277.315 37.0016 276.834 36.6097 276.246 36.3271C275.663 36.04 275.009 35.8965 274.284 35.8965C273.368 35.8965 272.577 36.1061 271.912 36.5254C271.247 36.9447 270.734 37.5394 270.374 38.3096C270.014 39.0798 269.834 39.998 269.834 41.0645V41.0781C269.834 42.14 270.014 43.056 270.374 43.8262C270.734 44.5964 271.247 45.1911 271.912 45.6104C272.582 46.0296 273.373 46.2393 274.284 46.2393ZM283.509 46.1436C284.238 46.1436 284.863 45.9886 285.382 45.6787C285.906 45.3688 286.31 44.9268 286.592 44.3525C286.879 43.7738 287.023 43.0879 287.023 42.2949V42.2812C287.023 41.4837 286.879 40.7979 286.592 40.2236C286.31 39.6449 285.906 39.2028 285.382 38.8975C284.858 38.5876 284.234 38.4326 283.509 38.4326C282.789 38.4326 282.165 38.5876 281.636 38.8975C281.112 39.2074 280.706 39.6494 280.419 40.2236C280.137 40.7979 279.995 41.4837 279.995 42.2812V42.2949C279.995 43.0879 280.137 43.7738 280.419 44.3525C280.702 44.9268 281.105 45.3688 281.629 45.6787C282.158 45.9886 282.785 46.1436 283.509 46.1436ZM283.509 44.8994C283.085 44.8994 282.725 44.7969 282.429 44.5918C282.133 44.3822 281.905 44.0837 281.745 43.6963C281.591 43.3089 281.513 42.8418 281.513 42.2949V42.2812C281.513 41.7298 281.591 41.2604 281.745 40.873C281.905 40.4857 282.133 40.1895 282.429 39.9844C282.725 39.7747 283.085 39.6699 283.509 39.6699C283.933 39.6699 284.293 39.7747 284.589 39.9844C284.885 40.1895 285.111 40.4857 285.266 40.873C285.421 41.2604 285.498 41.7298 285.498 42.2812V42.2949C285.498 42.8418 285.421 43.3089 285.266 43.6963C285.111 44.0837 284.885 44.3822 284.589 44.5918C284.293 44.7969 283.933 44.8994 283.509 44.8994ZM291.627 46.1436C292.219 46.1436 292.745 46.0479 293.206 45.8564C293.671 45.6605 294.037 45.3893 294.306 45.043C294.575 44.6921 294.71 44.2887 294.71 43.833V43.8193C294.71 43.2816 294.534 42.8532 294.183 42.5342C293.837 42.2152 293.308 41.9714 292.597 41.8027L291.415 41.5361C291 41.4359 290.702 41.3105 290.519 41.1602C290.337 41.0098 290.246 40.8184 290.246 40.5859V40.5723C290.246 40.3717 290.305 40.1986 290.424 40.0527C290.547 39.9023 290.713 39.7861 290.923 39.7041C291.132 39.6175 291.371 39.5742 291.64 39.5742C292.06 39.5742 292.397 39.6608 292.652 39.834C292.912 40.0072 293.076 40.2236 293.144 40.4834V40.4971H294.566V40.4902C294.521 40.0846 294.375 39.7292 294.129 39.4238C293.883 39.1139 293.548 38.8724 293.124 38.6992C292.704 38.5215 292.212 38.4326 291.647 38.4326C291.087 38.4326 290.588 38.5283 290.15 38.7197C289.717 38.9066 289.378 39.1686 289.132 39.5059C288.885 39.8385 288.762 40.2214 288.762 40.6543V40.6611C288.762 41.2035 288.929 41.641 289.261 41.9736C289.599 42.3018 290.116 42.5456 290.813 42.7051L292.003 42.9785C292.431 43.0788 292.739 43.2087 292.926 43.3682C293.112 43.5277 293.206 43.7236 293.206 43.9561V43.9697C293.206 44.1702 293.14 44.348 293.008 44.5029C292.875 44.6579 292.693 44.7786 292.461 44.8652C292.233 44.9518 291.966 44.9951 291.661 44.9951C291.219 44.9951 290.863 44.9085 290.594 44.7354C290.326 44.5622 290.143 44.3366 290.048 44.0586V44.0449H288.557V44.0586C288.603 44.4733 288.756 44.8379 289.015 45.1523C289.275 45.4622 289.626 45.7061 290.068 45.8838C290.51 46.057 291.03 46.1436 291.627 46.1436ZM299.361 46.0479C299.507 46.0479 299.649 46.0387 299.785 46.0205C299.922 46.0068 300.05 45.9909 300.168 45.9727V44.7832C300.063 44.7923 299.97 44.7992 299.888 44.8037C299.81 44.8083 299.717 44.8105 299.608 44.8105C299.238 44.8105 298.974 44.724 298.815 44.5508C298.655 44.373 298.575 44.0837 298.575 43.6826V39.7451H300.168V38.5762H298.575V36.7031H297.058V38.5762H295.896V39.7451H297.058V44.0449C297.058 44.7559 297.238 45.2686 297.598 45.583C297.962 45.8929 298.55 46.0479 299.361 46.0479ZM309.143 46.1436C309.873 46.1436 310.497 45.9886 311.016 45.6787C311.54 45.3688 311.944 44.9268 312.226 44.3525C312.513 43.7738 312.657 43.0879 312.657 42.2949V42.2812C312.657 41.4837 312.513 40.7979 312.226 40.2236C311.944 39.6449 311.54 39.2028 311.016 38.8975C310.492 38.5876 309.868 38.4326 309.143 38.4326C308.423 38.4326 307.799 38.5876 307.27 38.8975C306.746 39.2074 306.341 39.6494 306.054 40.2236C305.771 40.7979 305.63 41.4837 305.63 42.2812V42.2949C305.63 43.0879 305.771 43.7738 306.054 44.3525C306.336 44.9268 306.739 45.3688 307.263 45.6787C307.792 45.9886 308.419 46.1436 309.143 46.1436ZM309.143 44.8994C308.72 44.8994 308.36 44.7969 308.063 44.5918C307.767 44.3822 307.539 44.0837 307.38 43.6963C307.225 43.3089 307.147 42.8418 307.147 42.2949V42.2812C307.147 41.7298 307.225 41.2604 307.38 40.873C307.539 40.4857 307.767 40.1895 308.063 39.9844C308.36 39.7747 308.72 39.6699 309.143 39.6699C309.567 39.6699 309.927 39.7747 310.223 39.9844C310.52 40.1895 310.745 40.4857 310.9 40.873C311.055 41.2604 311.133 41.7298 311.133 42.2812V42.2949C311.133 42.8418 311.055 43.3089 310.9 43.6963C310.745 44.0837 310.52 44.3822 310.223 44.5918C309.927 44.7969 309.567 44.8994 309.143 44.8994ZM315.087 46H316.57V39.7451H318.197V38.5762H316.557V37.8652C316.557 37.4915 316.643 37.2067 316.817 37.0107C316.994 36.8148 317.288 36.7168 317.698 36.7168C317.812 36.7168 317.917 36.7214 318.013 36.7305C318.113 36.735 318.197 36.7441 318.266 36.7578V35.6641C318.134 35.6413 317.995 35.6253 317.849 35.6162C317.708 35.6025 317.555 35.5957 317.391 35.5957C316.616 35.5957 316.037 35.778 315.654 36.1426C315.276 36.5072 315.087 37.0586 315.087 37.7969V38.5762H313.863V39.7451H315.087V46ZM324.131 46H330.29V44.6738H325.662V36.1357H324.131V46ZM332.214 46H333.704V38.5762H332.214V46ZM332.966 37.25C333.221 37.25 333.44 37.1589 333.622 36.9766C333.805 36.7943 333.896 36.5755 333.896 36.3203C333.896 36.0651 333.805 35.8486 333.622 35.6709C333.44 35.4886 333.221 35.3975 332.966 35.3975C332.711 35.3975 332.492 35.4886 332.31 35.6709C332.128 35.8486 332.036 36.0651 332.036 36.3203C332.036 36.5755 332.128 36.7943 332.31 36.9766C332.492 37.1589 332.711 37.25 332.966 37.25ZM338.042 46H339.628L342.307 38.5762H340.742L338.896 44.4961H338.787L336.934 38.5762H335.355L338.042 46ZM343.965 46H345.455V38.5762H343.965V46ZM344.717 37.25C344.972 37.25 345.191 37.1589 345.373 36.9766C345.555 36.7943 345.646 36.5755 345.646 36.3203C345.646 36.0651 345.555 35.8486 345.373 35.6709C345.191 35.4886 344.972 35.3975 344.717 35.3975C344.462 35.3975 344.243 35.4886 344.061 35.6709C343.878 35.8486 343.787 36.0651 343.787 36.3203C343.787 36.5755 343.878 36.7943 344.061 36.9766C344.243 37.1589 344.462 37.25 344.717 37.25ZM347.748 46H349.232V41.6455C349.232 41.2445 349.302 40.9004 349.444 40.6133C349.59 40.3216 349.795 40.0983 350.059 39.9434C350.323 39.7839 350.635 39.7041 350.995 39.7041C351.542 39.7041 351.943 39.8568 352.199 40.1621C352.458 40.4629 352.588 40.9232 352.588 41.543V46H354.078V41.1943C354.078 40.3102 353.857 39.6289 353.415 39.1504C352.973 38.6719 352.335 38.4326 351.501 38.4326C350.959 38.4326 350.51 38.5443 350.155 38.7676C349.799 38.9909 349.53 39.3008 349.348 39.6973H349.232V38.5762H347.748V46ZM359.421 48.6182C360.127 48.6182 360.738 48.5042 361.253 48.2764C361.768 48.0485 362.164 47.7272 362.442 47.3125C362.725 46.8978 362.866 46.4102 362.866 45.8496V38.5762H361.382V39.793H361.294C361.148 39.515 360.963 39.2757 360.74 39.0752C360.517 38.8747 360.259 38.7197 359.967 38.6104C359.68 38.501 359.364 38.4463 359.017 38.4463C358.375 38.4463 357.821 38.6012 357.356 38.9111C356.891 39.2165 356.534 39.6426 356.283 40.1895C356.032 40.7318 355.907 41.3561 355.907 42.0625V42.0762C355.907 42.7734 356.03 43.391 356.276 43.9287C356.527 44.4619 356.882 44.8812 357.342 45.1865C357.807 45.4873 358.354 45.6377 358.983 45.6377C359.325 45.6377 359.642 45.5898 359.933 45.4941C360.225 45.3984 360.485 45.2572 360.713 45.0703C360.94 44.8789 361.127 44.651 361.273 44.3867H361.389V45.8428C361.389 46.3441 361.216 46.7337 360.87 47.0117C360.528 47.2897 360.052 47.4287 359.441 47.4287C358.944 47.4287 358.548 47.3467 358.252 47.1826C357.955 47.0186 357.775 46.8089 357.712 46.5537L357.705 46.54H356.201L356.194 46.5537C356.253 46.9639 356.417 47.3239 356.686 47.6338C356.955 47.9437 357.32 48.1852 357.78 48.3584C358.245 48.5316 358.792 48.6182 359.421 48.6182ZM359.4 44.4072C358.981 44.4072 358.623 44.3092 358.327 44.1133C358.035 43.9128 357.812 43.637 357.657 43.2861C357.502 42.9352 357.424 42.5296 357.424 42.0693V42.0557C357.424 41.5954 357.502 41.1898 357.657 40.8389C357.812 40.4834 358.035 40.2054 358.327 40.0049C358.623 39.8044 358.981 39.7041 359.4 39.7041C359.819 39.7041 360.179 39.8044 360.48 40.0049C360.781 40.2054 361.011 40.4834 361.171 40.8389C361.335 41.1943 361.417 41.5999 361.417 42.0557V42.0693C361.417 42.5296 361.335 42.9352 361.171 43.2861C361.011 43.637 360.781 43.9128 360.48 44.1133C360.179 44.3092 359.819 44.4072 359.4 44.4072Z" fill="black"/>
<path d="M258 98.5C258 108.717 249.717 117 239.5 117C229.283 117 221 108.717 221 98.5C221 88.2827 229.283 80 239.5 80C249.717 80 258 88.2827 258 98.5Z" fill="#29540E" fill-opacity="0.7"/>
<path d="M62 42.5C62 52.7173 53.7173 61 43.5 61C33.2827 61 25 52.7173 25 42.5C25 32.2827 33.2827 24 43.5 24C53.7173 24 62 32.2827 62 42.5Z" fill="#29540E" fill-opacity="0.7"/>
<path d="M62 152.5C62 162.717 53.7173 171 43.5 171C33.2827 171 25 162.717 25 152.5C25 142.283 33.2827 134 43.5 134C53.7173 134 62 142.283 62 152.5Z" fill="#29540E" fill-opacity="0.7"/>
<path d="M246 104H243.154L242.023 101.047H236.844L235.775 104H233L238.046 91H240.812L246 104ZM241.184 98.8568L239.398 94.0327L237.649 98.8568H241.184Z" fill="black"/>
<path d="M50 48H47.1543L46.0231 45.0471H40.8443L39.775 48H37L42.0462 35H44.8124L50 48ZM45.1835 42.8568L43.3984 38.0327L41.6485 42.8568H45.1835Z" fill="black"/>
<path d="M50 159H47.1543L46.0231 156.047H40.8443L39.775 159H37L42.0462 146H44.8124L50 159ZM45.1835 153.857L43.3984 149.033L41.6485 153.857H45.1835Z" fill="black"/>
<path d="M62 98.5C62 108.717 53.7173 117 43.5 117C33.2827 117 25 108.717 25 98.5C25 88.2827 33.2827 80 43.5 80C53.7173 80 62 88.2827 62 98.5Z" fill="#97B05D"/>
<path d="M38 92H43.7264C44.8599 92 45.7036 92.0443 46.2573 92.133C46.8176 92.2158 47.316 92.3931 47.7524 92.6651C48.1954 92.937 48.5635 93.3006 48.8567 93.7558C49.1498 94.2051 49.2964 94.7106 49.2964 95.2722C49.2964 95.8811 49.114 96.4397 48.7492 96.9482C48.3909 97.4566 47.9023 97.8379 47.2834 98.0921C48.1564 98.3226 48.8274 98.7158 49.2964 99.2715C49.7655 99.8272 50 100.48 50 101.231C50 101.822 49.8469 102.399 49.5407 102.96C49.241 103.516 48.8274 103.962 48.2997 104.299C47.7785 104.631 47.1336 104.834 46.3648 104.911C45.8827 104.959 44.7199 104.988 42.8762 105H38V92ZM40.8925 94.1637V97.1698H42.7883C43.9153 97.1698 44.6156 97.1551 44.8893 97.1255C45.3844 97.0723 45.772 96.9186 46.0521 96.6644C46.3388 96.4043 46.4821 96.0643 46.4821 95.6446C46.4821 95.2426 46.3583 94.9175 46.1107 94.6692C45.8697 94.415 45.5081 94.2613 45.0261 94.208C44.7394 94.1785 43.9153 94.1637 42.5537 94.1637H40.8925ZM40.8925 99.3336V102.81H43.57C44.6124 102.81 45.2736 102.783 45.5537 102.73C45.9837 102.659 46.3322 102.487 46.5993 102.216C46.873 101.938 47.0098 101.568 47.0098 101.107C47.0098 100.717 46.9055 100.386 46.6971 100.114C46.4886 99.842 46.1857 99.6439 45.7883 99.5198C45.3974 99.3956 44.544 99.3336 43.228 99.3336H40.8925Z" fill="black"/>
<path d="M258 152.5C258 162.717 249.717 171 239.5 171C229.283 171 221 162.717 221 152.5C221 142.283 229.283 134 239.5 134C249.717 134 258 142.283 258 152.5Z" fill="#E4BF3A" fill-opacity="0.5"/>
<path d="M243.303 154.792L246 155.632C245.587 157.109 244.897 158.208 243.933 158.929C242.974 159.643 241.756 160 240.277 160C238.448 160 236.944 159.387 235.767 158.162C234.589 156.931 234 155.25 234 153.12C234 150.867 234.592 149.118 235.776 147.875C236.96 146.625 238.517 146 240.446 146C242.132 146 243.5 146.489 244.553 147.468C245.179 148.047 245.649 148.878 245.962 149.962L243.209 150.608C243.046 149.906 242.705 149.352 242.185 148.946C241.671 148.54 241.045 148.336 240.305 148.336C239.284 148.336 238.454 148.697 237.815 149.417C237.182 150.137 236.866 151.304 236.866 152.917C236.866 154.628 237.179 155.847 237.806 156.574C238.432 157.3 239.247 157.664 240.249 157.664C240.988 157.664 241.624 157.433 242.157 156.971C242.689 156.509 243.071 155.783 243.303 154.792Z" fill="black"/>
<path d="M258 42C258 51.9411 249.717 60 239.5 60C229.283 60 221 51.9411 221 42C221 32.0589 229.283 24 239.5 24C249.717 24 258 32.0589 258 42Z" fill="#B00000" fill-opacity="0.4"/>
<path d="M234 35H239.282C240.474 35 241.382 35.0891 242.007 35.2674C242.846 35.5093 243.566 35.9391 244.164 36.5566C244.763 37.1742 245.219 37.9318 245.531 38.8295C245.844 39.7208 246 40.8222 246 42.1337C246 43.286 245.854 44.2792 245.561 45.1132C245.203 46.1319 244.692 46.9563 244.028 47.5866C243.526 48.0641 242.849 48.4366 241.997 48.704C241.359 48.9013 240.506 49 239.439 49H234V35ZM236.89 37.3683V46.6412H239.048C239.855 46.6412 240.438 46.5966 240.796 46.5075C241.264 46.3929 241.652 46.1987 241.958 45.925C242.27 45.6512 242.524 45.2024 242.719 44.5784C242.915 43.9482 243.012 43.0919 243.012 42.0096C243.012 40.9272 242.915 40.0964 242.719 39.5171C242.524 38.9377 242.251 38.4857 241.899 38.161C241.548 37.8363 241.102 37.6166 240.561 37.502C240.158 37.4129 239.367 37.3683 238.189 37.3683H236.89Z" fill="black"/>
<line x1="4" y1="191.5" x2="392" y2="191.5" stroke="#D9D9D9"/>
<path d="M154.985 214H156.688L160.201 204.136H158.526L155.895 212.147H155.778L153.146 204.136H151.479L154.985 214ZM161.907 214H163.397V206.576H161.907V214ZM162.659 205.25C162.914 205.25 163.133 205.159 163.315 204.977C163.497 204.794 163.588 204.576 163.588 204.32C163.588 204.065 163.497 203.849 163.315 203.671C163.133 203.489 162.914 203.397 162.659 203.397C162.403 203.397 162.185 203.489 162.002 203.671C161.82 203.849 161.729 204.065 161.729 204.32C161.729 204.576 161.82 204.794 162.002 204.977C162.185 205.159 162.403 205.25 162.659 205.25ZM168.807 214.144C169.286 214.144 169.707 214.082 170.072 213.959C170.441 213.836 170.756 213.674 171.015 213.474C171.28 213.273 171.492 213.052 171.651 212.811C171.811 212.564 171.922 212.318 171.986 212.072L172 212.011H170.564L170.537 212.065C170.482 212.193 170.38 212.323 170.229 212.455C170.083 212.587 169.894 212.699 169.662 212.79C169.434 212.877 169.161 212.92 168.842 212.92C168.427 212.92 168.067 212.829 167.761 212.646C167.461 212.464 167.228 212.2 167.064 211.854C166.9 211.507 166.818 211.09 166.818 210.603V210.008C166.818 209.497 166.9 209.067 167.064 208.716C167.233 208.365 167.461 208.101 167.748 207.923C168.039 207.741 168.37 207.649 168.739 207.649C169.108 207.649 169.434 207.736 169.717 207.909C169.999 208.082 170.22 208.344 170.38 208.695C170.544 209.042 170.626 209.479 170.626 210.008V210.603L171.337 209.618H166.073V210.678H172.075V210.158C172.075 209.411 171.94 208.759 171.672 208.203C171.403 207.643 171.018 207.207 170.516 206.897C170.02 206.588 169.425 206.433 168.732 206.433C168.044 206.433 167.442 206.594 166.927 206.918C166.417 207.242 166.021 207.693 165.738 208.271C165.46 208.85 165.321 209.527 165.321 210.302V210.309C165.321 211.092 165.46 211.771 165.738 212.346C166.021 212.92 166.422 213.364 166.941 213.679C167.461 213.989 168.083 214.144 168.807 214.144ZM175.346 214H176.87L178.395 208.463H178.511L180.049 214H181.587L183.624 206.576H182.154L180.821 212.305H180.712L179.181 206.576H177.766L176.241 212.305H176.125L174.799 206.576H173.302L175.346 214ZM189.414 214H190.815V206.768H191.567L189.974 204.409L193.809 214H194.944L198.786 204.409L197.186 206.768H197.945V214H199.346V204.136H197.576L194.438 211.997H194.322L191.184 204.136H189.414V214ZM204.928 214.144C205.657 214.144 206.281 213.989 206.801 213.679C207.325 213.369 207.728 212.927 208.011 212.353C208.298 211.774 208.442 211.088 208.442 210.295V210.281C208.442 209.484 208.298 208.798 208.011 208.224C207.728 207.645 207.325 207.203 206.801 206.897C206.277 206.588 205.653 206.433 204.928 206.433C204.208 206.433 203.583 206.588 203.055 206.897C202.531 207.207 202.125 207.649 201.838 208.224C201.555 208.798 201.414 209.484 201.414 210.281V210.295C201.414 211.088 201.555 211.774 201.838 212.353C202.121 212.927 202.524 213.369 203.048 213.679C203.577 213.989 204.203 214.144 204.928 214.144ZM204.928 212.899C204.504 212.899 204.144 212.797 203.848 212.592C203.552 212.382 203.324 212.084 203.164 211.696C203.009 211.309 202.932 210.842 202.932 210.295V210.281C202.932 209.73 203.009 209.26 203.164 208.873C203.324 208.486 203.552 208.189 203.848 207.984C204.144 207.775 204.504 207.67 204.928 207.67C205.352 207.67 205.712 207.775 206.008 207.984C206.304 208.189 206.53 208.486 206.685 208.873C206.84 209.26 206.917 209.73 206.917 210.281V210.295C206.917 210.842 206.84 211.309 206.685 211.696C206.53 212.084 206.304 212.382 206.008 212.592C205.712 212.797 205.352 212.899 204.928 212.899ZM210.345 214H211.829V209.563C211.829 209.203 211.908 208.894 212.068 208.634C212.232 208.369 212.455 208.164 212.738 208.019C213.025 207.873 213.358 207.8 213.736 207.8C213.877 207.8 214.012 207.807 214.139 207.82C214.271 207.834 214.404 207.854 214.536 207.882V206.515C214.463 206.496 214.367 206.48 214.249 206.467C214.13 206.453 214.009 206.446 213.886 206.446C213.394 206.446 212.979 206.556 212.642 206.774C212.309 206.993 212.077 207.301 211.945 207.697H211.829V206.576H210.345V214ZM219.03 214.144C219.509 214.144 219.93 214.082 220.295 213.959C220.664 213.836 220.978 213.674 221.238 213.474C221.502 213.273 221.714 213.052 221.874 212.811C222.033 212.564 222.145 212.318 222.209 212.072L222.223 212.011H220.787L220.76 212.065C220.705 212.193 220.602 212.323 220.452 212.455C220.306 212.587 220.117 212.699 219.885 212.79C219.657 212.877 219.383 212.92 219.064 212.92C218.65 212.92 218.29 212.829 217.984 212.646C217.683 212.464 217.451 212.2 217.287 211.854C217.123 211.507 217.041 211.09 217.041 210.603V210.008C217.041 209.497 217.123 209.067 217.287 208.716C217.456 208.365 217.683 208.101 217.971 207.923C218.262 207.741 218.593 207.649 218.962 207.649C219.331 207.649 219.657 207.736 219.939 207.909C220.222 208.082 220.443 208.344 220.602 208.695C220.766 209.042 220.849 209.479 220.849 210.008V210.603L221.559 209.618H216.296V210.678H222.298V210.158C222.298 209.411 222.163 208.759 221.894 208.203C221.626 207.643 221.24 207.207 220.739 206.897C220.242 206.588 219.648 206.433 218.955 206.433C218.267 206.433 217.665 206.594 217.15 206.918C216.64 207.242 216.243 207.693 215.961 208.271C215.683 208.85 215.544 209.527 215.544 210.302V210.309C215.544 211.092 215.683 211.771 215.961 212.346C216.243 212.92 216.644 213.364 217.164 213.679C217.683 213.989 218.306 214.144 219.03 214.144Z" fill="black"/>
<path d="M237.057 207L240.5 210.09L243.943 207L245 207.951L240.5 212L236 207.951L237.057 207Z" fill="black"/>
<defs>
<filter id="filter0_d_14_700" x="0" y="0" width="396" height="235" filterUnits="userSpaceOnUse" color-interpolation-filters="sRGB">
<feFlood flood-opacity="0" result="BackgroundImageFix"/>
<feColorMatrix in="SourceAlpha" type="matrix" values="0 0 0 0 0 0 0 0 0 0 0 0 0 0 0 0 0 0 127 0" result="hardAlpha"/>
<feOffset dy="4"/>
<feGaussianBlur stdDeviation="2"/>
<feComposite in2="hardAlpha" operator="out"/>
<feColorMatrix type="matrix" values="0 0 0 0 0 0 0 0 0 0 0 0 0 0 0 0 0 0 0.25 0"/>
<feBlend mode="normal" in2="BackgroundImageFix" result="effect1_dropShadow_14_700"/>
<feBlend mode="normal" in="SourceGraphic" in2="effect1_dropShadow_14_700" result="shape"/>
</filter>
</defs>
</svg>
