<svg width="260" height="54" viewBox="0 0 260 54" fill="none" xmlns="http://www.w3.org/2000/svg">
<path d="M92.9103 45.9057C94.505 45.9057 96.2096 45.3535 96.9244 44.0834V43.2551C95.3298 43.6417 94.285 43.0895 94.285 41.1568V29.4503C94.285 22.327 90.271 20.1183 86.1469 20.1183C81.693 20.1183 79.4935 22.6583 78.4487 23.7627C77.7339 24.591 76.9641 23.9836 76.9641 21.9957V11.228C76.9641 9.84747 76.1942 9.18484 74.7646 9.46093L67.6712 10.8414V12.3323C70.3656 12.0562 71.1904 12.8845 71.1904 15.3694V40.7703C71.1904 43.0895 70.2556 43.8073 67.6712 44.0834V45.5743H80.4832V44.0834C77.8988 43.8073 76.9641 43.0895 76.9641 40.7703V30.7204C76.9641 26.6341 79.2185 23.5971 82.8477 23.5971C86.5318 23.5971 88.5114 26.6341 88.5114 30.7204V41.212C88.5114 44.47 90.3809 45.9057 92.9103 45.9057Z" fill="#203A10"/>
<path d="M111.746 45.9057C118.509 45.9057 124.723 41.3225 124.723 33.0396C124.723 24.7567 118.509 20.1735 111.746 20.1735C104.983 20.1735 98.769 24.7567 98.769 33.0396C98.769 41.3225 104.983 45.9057 111.746 45.9057ZM105.038 30.8308C105.038 24.8119 107.292 22.0509 110.536 22.0509C115.32 22.0509 118.454 28.1251 118.454 35.1931C118.454 41.2672 116.145 44.0282 112.956 44.0282C108.172 44.0282 105.038 37.9541 105.038 30.8308Z" fill="#203A10"/>
<path d="M166.484 45.9057C168.078 45.9057 169.783 45.3535 170.498 44.0834V43.2551C168.903 43.6417 167.858 43.0895 167.858 41.1568V29.5608C167.858 22.327 164.174 20.1183 160.16 20.1183C156.311 20.1183 154.386 22.2166 152.957 23.8179C152.242 24.7567 151.417 24.4254 150.812 23.3762C149.328 20.8913 146.853 20.1183 144.544 20.1183C140.42 20.1183 138.44 22.6583 137.45 23.7627C136.736 24.591 135.966 23.9836 135.966 21.9957C135.966 20.6704 135.196 20.0078 133.766 20.2839L126.673 21.7196V23.2105C129.367 22.9344 130.192 23.7627 130.192 26.2476V40.7703C130.192 43.0895 129.257 43.8073 126.673 44.0834V45.5743H139.43V44.0834C136.9 43.8073 135.966 43.0895 135.966 40.7703V30.7204C135.966 26.5789 137.945 23.5971 141.244 23.5971C144.544 23.5971 146.138 26.5789 146.138 30.7204V40.7703C146.138 43.0895 145.204 43.8073 142.674 44.0834V45.5743H155.321V44.0834C152.847 43.8073 151.912 43.0895 151.912 40.7703V30.7204C151.912 26.5789 153.892 23.5971 157.191 23.5971C160.49 23.5971 162.085 26.5789 162.085 30.7204V41.212C162.085 44.47 163.954 45.9057 166.484 45.9057Z" fill="#203A10"/>
<path d="M185.288 45.9057C191.282 45.9057 194.966 42.4268 196.011 40.439L194.856 39.445C192.932 41.8194 190.292 42.4268 188.038 42.4268C182.924 42.4268 178.8 39.1137 178.8 35.0275C178.8 33.8126 179.185 33.3157 180.23 33.2604L184.903 32.9843C191.667 32.653 195.076 31.6591 195.076 27.5729C195.076 23.1553 191.172 20.1735 185.508 20.1735C178.635 20.1735 172.256 24.591 172.256 33.0948C172.256 41.3225 178.415 45.9057 185.288 45.9057ZM178.47 29.4503C178.47 26.1372 180.23 22.0509 184.574 22.0509C188.148 22.0509 189.577 24.7015 189.577 27.6281C189.577 30.3338 188.313 31.2173 183.584 31.4934L180.285 31.6039C179.02 31.6591 178.47 31.2173 178.47 29.4503Z" fill="#203A10"/>
<path d="M198.661 44.0834V45.5743H213.232V44.0834C209.273 43.8073 208.338 43.0895 208.338 40.8255V24.9776C208.338 23.3762 208.888 22.824 211.418 22.9897L215.267 23.2105V20.9465H211.418C208.888 20.9465 208.338 20.6152 208.338 19.1795V15.4798C208.338 11.6145 208.778 9.73703 210.593 9.73703C213.562 9.73703 212.517 14.7068 216.311 14.7068C218.016 14.7068 219.171 13.7128 219.171 12.001C219.171 9.29528 216.256 7.91479 212.627 7.91479C206.634 7.91479 202.565 11.6697 202.565 18.9034C202.565 20.7257 201.025 21.1674 198.221 21.6644V23.0449H201.135C202.125 23.0449 202.565 23.3762 202.565 24.8671V40.8255C202.565 43.0895 201.63 43.8073 198.661 44.0834Z" fill="#203A10"/>
<path d="M229.74 45.9057C234.249 45.9057 236.558 43.3104 237.603 42.0955C237.878 41.7642 238.098 41.5986 238.373 41.5986C238.758 41.5986 238.978 41.9299 239.033 42.4268C239.308 44.2491 240.572 45.9057 243.322 45.9057C244.916 45.9057 246.621 45.3535 247.336 44.0834V43.2551C245.741 43.6417 244.696 43.0895 244.696 41.1568V22.1062C244.696 20.6704 243.872 20.0078 242.442 20.2839L235.404 21.7196V23.1553C238.098 23.0449 238.923 23.7627 238.923 26.2476V35.2483C238.923 39.3898 236.723 42.4268 233.039 42.4268C229.41 42.4268 227.375 39.3898 227.375 35.2483V22.1062C227.375 20.6704 226.606 20.0078 225.176 20.2839L218.083 21.7196V23.1553C220.777 23.0449 221.602 23.7627 221.602 26.2476V36.4632C221.602 43.6969 225.561 45.9057 229.74 45.9057Z" fill="#203A10"/>
<path d="M256.041 45.9057C257.636 45.9057 259.34 45.3535 260 44.0834V43.2551C258.405 43.6417 257.361 43.0895 257.361 41.1568V11.228C257.361 9.84747 256.591 9.18484 255.161 9.46093L248.068 10.8414V12.3323C250.762 12.0562 251.587 12.8845 251.587 15.3694V41.212C251.587 44.47 253.457 45.9057 256.041 45.9057Z" fill="#203A10"/>
<path d="M0 0H55.7991V53.9391H0V0Z" fill="#203A10"/>
<path d="M39.8748 42.6376C41.4335 42.8772 44.9404 42.8474 46.4986 40.8116C47.5565 39.5258 49.0105 36.1991 49.4672 33.1378L49.0612 33.6238L49.4672 32.8462C46.4675 32.8334 42.9062 35.0514 41.5604 36.0804C39.4284 37.5973 39.4283 40.971 39.6947 42.4683L40.6446 41.7186L39.8748 42.6376Z" fill="#97B05D"/>
<path fill-rule="evenodd" clip-rule="evenodd" d="M48.0228 34.3787L47.9755 34.6969C47.7857 35.9732 47.3893 37.3026 46.9311 38.4462C46.4743 39.5865 45.952 40.5521 45.5051 41.0979C44.8363 41.9734 43.7575 42.4094 42.6999 42.6038C41.64 42.7987 40.5816 42.7548 39.9274 42.6538L39.7145 42.621L39.7224 42.6116L39.7116 42.6201L39.6752 42.4151C39.5634 41.7844 39.5078 40.7631 39.703 39.7383C39.8978 38.7156 40.3462 37.6705 41.2596 37.0174C41.8205 36.5872 42.838 35.912 44.0269 35.3448C45.2148 34.7781 46.5872 34.3128 47.8519 34.3182L47.9912 34.3188L48.0405 34.2596L48.0317 34.319L48.0538 34.3191L48.0228 34.3787ZM47.6466 34.5626C46.495 34.6045 45.2471 35.0318 44.1385 35.5607C42.9661 36.12 41.9627 36.7864 41.4144 37.2071L41.4127 37.2084L41.4109 37.2097C40.5688 37.8109 40.1392 38.7871 39.9498 39.7817C39.7809 40.6682 39.806 41.5544 39.89 42.1665L40.5018 41.6819L40.6794 41.8503L40.1831 42.445C40.8178 42.5195 41.7359 42.5356 42.6528 42.367C43.6814 42.1779 44.6887 41.7604 45.304 40.9537L45.3053 40.952L45.3067 40.9504C45.7312 40.4326 46.2432 39.4921 46.697 38.3596C47.0961 37.3635 47.4469 36.2267 47.6523 35.1119L47.6148 35.1569L47.4046 35.0277L47.6466 34.5626Z" fill="#97B05D"/>
<path d="M35.5555 45.1142C37.1518 45.1142 38.8582 44.5635 39.5738 43.2969V42.4708C37.9775 42.8563 36.9316 42.3056 36.9316 40.3782V28.7032C36.9316 21.5992 32.9132 19.3963 28.7848 19.3963C24.326 19.3963 22.1242 21.9296 21.0783 23.031C20.3627 23.857 19.592 23.2513 19.592 21.2687V10.53C19.592 9.15325 18.8214 8.49241 17.3902 8.76776L10.2892 10.1445V11.6314C12.9865 11.3561 13.8122 12.1821 13.8122 14.6603V39.9927C13.8122 42.3056 12.8764 43.0215 10.2892 43.2969V44.7838H23.115V43.2969C20.5278 43.0215 19.592 42.3056 19.592 39.9927V29.9699C19.592 25.8946 21.8489 22.8658 25.482 22.8658C29.1701 22.8658 31.1518 25.8946 31.1518 29.9699V40.4332C31.1518 43.6824 33.0233 45.1142 35.5555 45.1142Z" fill="white"/>
<path d="M35.5555 45.1142C37.1518 45.1142 38.8582 44.5635 39.5738 43.2969V42.4708C37.9775 42.8563 36.9316 42.3056 36.9316 40.3782V28.7032C36.9316 21.5992 32.9132 19.3963 28.7848 19.3963C24.326 19.3963 22.1242 21.9296 21.0783 23.031C20.3627 23.857 19.592 23.2513 19.592 21.2687V10.53C19.592 9.15325 18.8214 8.49241 17.3902 8.76776L10.2892 10.1445V11.6314C12.9865 11.3561 13.8122 12.1821 13.8122 14.6603V39.9927C13.8122 42.3056 12.8764 43.0215 10.2892 43.2969V44.7838H23.115V43.2969C20.5278 43.0215 19.592 42.3056 19.592 39.9927V29.9699C19.592 25.8946 21.8489 22.8658 25.482 22.8658C29.1701 22.8658 31.1518 25.8946 31.1518 29.9699V40.4332C31.1518 43.6824 33.0233 45.1142 35.5555 45.1142Z" fill="white"/>
<path d="M39.8748 42.6376C41.4335 42.8772 44.9404 42.8474 46.4986 40.8116C47.5565 39.5258 49.0105 36.1991 49.4672 33.1378L49.0612 33.6238L49.4672 32.8462C46.4675 32.8334 42.9062 35.0514 41.5604 36.0804C39.4284 37.5973 39.4283 40.971 39.6947 42.4683L40.6446 41.7186L39.8748 42.6376Z" fill="#97B05D"/>
<path fill-rule="evenodd" clip-rule="evenodd" d="M48.0228 34.3787L47.9755 34.6969C47.7857 35.9732 47.3893 37.3026 46.9311 38.4462C46.4743 39.5865 45.952 40.5521 45.5051 41.0979C44.8363 41.9734 43.7575 42.4094 42.6999 42.6038C41.64 42.7987 40.5816 42.7548 39.9274 42.6538L39.7145 42.621L39.7224 42.6116L39.7116 42.6201L39.6752 42.4151C39.5634 41.7844 39.5078 40.7631 39.703 39.7383C39.8978 38.7156 40.3462 37.6705 41.2596 37.0174C41.8205 36.5872 42.838 35.912 44.0269 35.3448C45.2148 34.7781 46.5872 34.3128 47.8519 34.3182L47.9912 34.3188L48.0405 34.2596L48.0317 34.319L48.0538 34.3191L48.0228 34.3787ZM47.6466 34.5626C46.495 34.6045 45.2471 35.0318 44.1385 35.5607C42.9661 36.12 41.9627 36.7864 41.4144 37.2071L41.4127 37.2084L41.4109 37.2097C40.5688 37.8109 40.1392 38.7871 39.9498 39.7817C39.7809 40.6682 39.806 41.5544 39.89 42.1665L40.5018 41.6819L40.6794 41.8503L40.1831 42.445C40.8178 42.5195 41.7359 42.5356 42.6528 42.367C43.6814 42.1779 44.6887 41.7604 45.304 40.9537L45.3053 40.952L45.3067 40.9504C45.7312 40.4326 46.2432 39.4921 46.697 38.3596C47.0961 37.3635 47.4469 36.2267 47.6523 35.1119L47.6148 35.1569L47.4046 35.0277L47.6466 34.5626Z" fill="#97B05D"/>
</svg>
