<svg width="388" height="50" viewBox="0 0 388 50" fill="none" xmlns="http://www.w3.org/2000/svg">
<rect x="0.5" y="0.5" width="387" height="49" rx="6.5" fill="white"/>
<rect x="84" y="13" width="24" height="24" rx="12" fill="#1877F2"/>
<path d="M100.671 28.4688L101.203 25H97.875V22.75C97.875 21.8008 98.3391 20.875 99.8297 20.875H101.344V17.9219C101.344 17.9219 99.9703 17.6875 98.6578 17.6875C95.9156 17.6875 94.125 19.3492 94.125 22.3563V25H91.0781V28.4688H94.125V36.8547C94.7367 36.9508 95.3625 37 96 37C96.6375 37 97.2633 36.9508 97.875 36.8547V28.4688H100.671Z" fill="white"/>
<path d="M126.492 26.7891L128.734 27.5C128.391 28.75 127.818 29.6797 127.016 30.2891C126.219 30.8932 125.206 31.1953 123.977 31.1953C122.456 31.1953 121.206 30.6771 120.227 29.6406C119.247 28.599 118.758 27.1771 118.758 25.375C118.758 23.4688 119.25 21.9896 120.234 20.9375C121.219 19.8802 122.513 19.3516 124.117 19.3516C125.518 19.3516 126.656 19.7656 127.531 20.5938C128.052 21.0833 128.443 21.7865 128.703 22.7031L126.414 23.25C126.279 22.6562 125.995 22.1875 125.562 21.8438C125.135 21.5 124.615 21.3281 124 21.3281C123.151 21.3281 122.461 21.6328 121.93 22.2422C121.404 22.8516 121.141 23.8385 121.141 25.2031C121.141 26.651 121.401 27.6823 121.922 28.2969C122.443 28.9115 123.12 29.2188 123.953 29.2188C124.568 29.2188 125.096 29.0234 125.539 28.6328C125.982 28.2422 126.299 27.6276 126.492 26.7891ZM130.203 26.7344C130.203 26.0052 130.383 25.2995 130.742 24.6172C131.102 23.9349 131.609 23.4141 132.266 23.0547C132.927 22.6953 133.664 22.5156 134.477 22.5156C135.732 22.5156 136.76 22.9245 137.562 23.7422C138.365 24.5547 138.766 25.5833 138.766 26.8281C138.766 28.0833 138.359 29.125 137.547 29.9531C136.74 30.776 135.721 31.1875 134.492 31.1875C133.732 31.1875 133.005 31.0156 132.312 30.6719C131.625 30.3281 131.102 29.8255 130.742 29.1641C130.383 28.4974 130.203 27.6875 130.203 26.7344ZM132.453 26.8516C132.453 27.6745 132.648 28.3047 133.039 28.7422C133.43 29.1797 133.911 29.3984 134.484 29.3984C135.057 29.3984 135.536 29.1797 135.922 28.7422C136.312 28.3047 136.508 27.6693 136.508 26.8359C136.508 26.0234 136.312 25.3984 135.922 24.9609C135.536 24.5234 135.057 24.3047 134.484 24.3047C133.911 24.3047 133.43 24.5234 133.039 24.9609C132.648 25.3984 132.453 26.0286 132.453 26.8516ZM148.039 31H145.844V26.7656C145.844 25.8698 145.797 25.2917 145.703 25.0312C145.609 24.7656 145.456 24.5599 145.242 24.4141C145.034 24.2682 144.781 24.1953 144.484 24.1953C144.104 24.1953 143.763 24.2995 143.461 24.5078C143.159 24.7161 142.951 24.9922 142.836 25.3359C142.727 25.6797 142.672 26.3151 142.672 27.2422V31H140.477V22.7031H142.516V23.9219C143.24 22.9844 144.151 22.5156 145.25 22.5156C145.734 22.5156 146.177 22.6042 146.578 22.7812C146.979 22.9531 147.281 23.1745 147.484 23.4453C147.693 23.7161 147.836 24.0234 147.914 24.3672C147.997 24.7109 148.039 25.2031 148.039 25.8438V31ZM154.078 22.7031V24.4531H152.578V27.7969C152.578 28.474 152.591 28.8698 152.617 28.9844C152.648 29.0938 152.714 29.1849 152.812 29.2578C152.917 29.3307 153.042 29.3672 153.188 29.3672C153.391 29.3672 153.685 29.2969 154.07 29.1562L154.258 30.8594C153.747 31.0781 153.169 31.1875 152.523 31.1875C152.128 31.1875 151.771 31.1224 151.453 30.9922C151.135 30.8568 150.901 30.6849 150.75 30.4766C150.604 30.263 150.503 29.9766 150.445 29.6172C150.398 29.362 150.375 28.8464 150.375 28.0703V24.4531H149.367V22.7031H150.375V21.0547L152.578 19.7734V22.7031H154.078ZM155.602 21.5781V19.5469H157.797V21.5781H155.602ZM155.602 31V22.7031H157.797V31H155.602ZM167.602 31H165.406V26.7656C165.406 25.8698 165.359 25.2917 165.266 25.0312C165.172 24.7656 165.018 24.5599 164.805 24.4141C164.596 24.2682 164.344 24.1953 164.047 24.1953C163.667 24.1953 163.326 24.2995 163.023 24.5078C162.721 24.7161 162.513 24.9922 162.398 25.3359C162.289 25.6797 162.234 26.3151 162.234 27.2422V31H160.039V22.7031H162.078V23.9219C162.802 22.9844 163.714 22.5156 164.812 22.5156C165.297 22.5156 165.74 22.6042 166.141 22.7812C166.542 22.9531 166.844 23.1745 167.047 23.4453C167.255 23.7161 167.398 24.0234 167.477 24.3672C167.56 24.7109 167.602 25.2031 167.602 25.8438V31ZM175.297 31V29.7578C174.995 30.2005 174.596 30.5495 174.102 30.8047C173.612 31.0599 173.094 31.1875 172.547 31.1875C171.99 31.1875 171.49 31.0651 171.047 30.8203C170.604 30.5755 170.284 30.2318 170.086 29.7891C169.888 29.3464 169.789 28.7344 169.789 27.9531V22.7031H171.984V26.5156C171.984 27.6823 172.023 28.3984 172.102 28.6641C172.185 28.9245 172.333 29.1328 172.547 29.2891C172.76 29.4401 173.031 29.5156 173.359 29.5156C173.734 29.5156 174.07 29.4141 174.367 29.2109C174.664 29.0026 174.867 28.7474 174.977 28.4453C175.086 28.138 175.141 27.3906 175.141 26.2031V22.7031H177.336V31H175.297ZM184.422 28.3594L186.609 28.7266C186.328 29.5286 185.883 30.1406 185.273 30.5625C184.669 30.9792 183.911 31.1875 183 31.1875C181.557 31.1875 180.49 30.7161 179.797 29.7734C179.25 29.0182 178.977 28.0651 178.977 26.9141C178.977 25.5391 179.336 24.4635 180.055 23.6875C180.773 22.9062 181.682 22.5156 182.781 22.5156C184.016 22.5156 184.99 22.9245 185.703 23.7422C186.417 24.5547 186.758 25.8021 186.727 27.4844H181.227C181.242 28.1354 181.419 28.6432 181.758 29.0078C182.096 29.3672 182.518 29.5469 183.023 29.5469C183.367 29.5469 183.656 29.4531 183.891 29.2656C184.125 29.0781 184.302 28.776 184.422 28.3594ZM184.547 26.1406C184.531 25.5052 184.367 25.0234 184.055 24.6953C183.742 24.362 183.362 24.1953 182.914 24.1953C182.435 24.1953 182.039 24.3698 181.727 24.7188C181.414 25.0677 181.26 25.5417 181.266 26.1406H184.547ZM194.523 31L191.898 22.7031H194.031L195.586 28.1406L197.016 22.7031H199.133L200.516 28.1406L202.102 22.7031H204.266L201.602 31H199.492L198.062 25.6641L196.656 31H194.523ZM205.43 21.5781V19.5469H207.625V21.5781H205.43ZM205.43 31V22.7031H207.625V31H205.43ZM213.688 22.7031V24.4531H212.188V27.7969C212.188 28.474 212.201 28.8698 212.227 28.9844C212.258 29.0938 212.323 29.1849 212.422 29.2578C212.526 29.3307 212.651 29.3672 212.797 29.3672C213 29.3672 213.294 29.2969 213.68 29.1562L213.867 30.8594C213.357 31.0781 212.779 31.1875 212.133 31.1875C211.737 31.1875 211.38 31.1224 211.062 30.9922C210.745 30.8568 210.51 30.6849 210.359 30.4766C210.214 30.263 210.112 29.9766 210.055 29.6172C210.008 29.362 209.984 28.8464 209.984 28.0703V24.4531H208.977V22.7031H209.984V21.0547L212.188 19.7734V22.7031H213.688ZM217.398 19.5469V23.7578C218.107 22.9297 218.953 22.5156 219.938 22.5156C220.443 22.5156 220.898 22.6094 221.305 22.7969C221.711 22.9844 222.016 23.224 222.219 23.5156C222.427 23.8073 222.568 24.1302 222.641 24.4844C222.719 24.8385 222.758 25.388 222.758 26.1328V31H220.562V26.6172C220.562 25.7474 220.521 25.1953 220.438 24.9609C220.354 24.7266 220.206 24.5417 219.992 24.4062C219.784 24.2656 219.521 24.1953 219.203 24.1953C218.839 24.1953 218.513 24.2839 218.227 24.4609C217.94 24.638 217.729 24.9062 217.594 25.2656C217.464 25.6198 217.398 26.1458 217.398 26.8438V31H215.203V19.5469H217.398ZM229.477 31V19.5469H237.328V21.4844H231.789V24.1953H236.57V26.1328H231.789V31H229.477ZM240.867 25.2344L238.875 24.875C239.099 24.0729 239.484 23.4792 240.031 23.0938C240.578 22.7083 241.391 22.5156 242.469 22.5156C243.448 22.5156 244.177 22.6328 244.656 22.8672C245.135 23.0964 245.471 23.3906 245.664 23.75C245.862 24.1042 245.961 24.7578 245.961 25.7109L245.938 28.2734C245.938 29.0026 245.971 29.5417 246.039 29.8906C246.112 30.2344 246.245 30.6042 246.438 31H244.266C244.208 30.8542 244.138 30.638 244.055 30.3516C244.018 30.2214 243.992 30.1354 243.977 30.0938C243.602 30.4583 243.201 30.7318 242.773 30.9141C242.346 31.0964 241.891 31.1875 241.406 31.1875C240.552 31.1875 239.878 30.9557 239.383 30.4922C238.893 30.0286 238.648 29.4427 238.648 28.7344C238.648 28.2656 238.76 27.849 238.984 27.4844C239.208 27.1146 239.521 26.8333 239.922 26.6406C240.328 26.4427 240.911 26.2708 241.672 26.125C242.698 25.9323 243.409 25.7526 243.805 25.5859V25.3672C243.805 24.9453 243.701 24.6458 243.492 24.4688C243.284 24.2865 242.891 24.1953 242.312 24.1953C241.922 24.1953 241.617 24.2734 241.398 24.4297C241.18 24.5807 241.003 24.849 240.867 25.2344ZM243.805 27.0156C243.523 27.1094 243.078 27.2214 242.469 27.3516C241.859 27.4818 241.461 27.6094 241.273 27.7344C240.987 27.9375 240.844 28.1953 240.844 28.5078C240.844 28.8151 240.958 29.0807 241.188 29.3047C241.417 29.5286 241.708 29.6406 242.062 29.6406C242.458 29.6406 242.836 29.5104 243.195 29.25C243.461 29.0521 243.635 28.8099 243.719 28.5234C243.776 28.3359 243.805 27.9792 243.805 27.4531V27.0156ZM255.367 25.1562L253.203 25.5469C253.13 25.1146 252.964 24.7891 252.703 24.5703C252.448 24.3516 252.115 24.2422 251.703 24.2422C251.156 24.2422 250.719 24.4323 250.391 24.8125C250.068 25.1875 249.906 25.8177 249.906 26.7031C249.906 27.6875 250.07 28.3828 250.398 28.7891C250.732 29.1953 251.177 29.3984 251.734 29.3984C252.151 29.3984 252.492 29.2812 252.758 29.0469C253.023 28.8073 253.211 28.3984 253.32 27.8203L255.477 28.1875C255.253 29.1771 254.823 29.9245 254.188 30.4297C253.552 30.9349 252.701 31.1875 251.633 31.1875C250.419 31.1875 249.451 30.8047 248.727 30.0391C248.008 29.2734 247.648 28.2135 247.648 26.8594C247.648 25.4896 248.01 24.4245 248.734 23.6641C249.458 22.8984 250.438 22.5156 251.672 22.5156C252.682 22.5156 253.484 22.7344 254.078 23.1719C254.677 23.6042 255.107 24.2656 255.367 25.1562ZM261.844 28.3594L264.031 28.7266C263.75 29.5286 263.305 30.1406 262.695 30.5625C262.091 30.9792 261.333 31.1875 260.422 31.1875C258.979 31.1875 257.911 30.7161 257.219 29.7734C256.672 29.0182 256.398 28.0651 256.398 26.9141C256.398 25.5391 256.758 24.4635 257.477 23.6875C258.195 22.9062 259.104 22.5156 260.203 22.5156C261.438 22.5156 262.411 22.9245 263.125 23.7422C263.839 24.5547 264.18 25.8021 264.148 27.4844H258.648C258.664 28.1354 258.841 28.6432 259.18 29.0078C259.518 29.3672 259.94 29.5469 260.445 29.5469C260.789 29.5469 261.078 29.4531 261.312 29.2656C261.547 29.0781 261.724 28.776 261.844 28.3594ZM261.969 26.1406C261.953 25.5052 261.789 25.0234 261.477 24.6953C261.164 24.362 260.784 24.1953 260.336 24.1953C259.857 24.1953 259.461 24.3698 259.148 24.7188C258.836 25.0677 258.682 25.5417 258.688 26.1406H261.969ZM265.852 31V19.5469H268.047V23.6719C268.724 22.901 269.526 22.5156 270.453 22.5156C271.464 22.5156 272.299 22.8828 272.961 23.6172C273.622 24.3464 273.953 25.3958 273.953 26.7656C273.953 28.1823 273.615 29.2734 272.938 30.0391C272.266 30.8047 271.448 31.1875 270.484 31.1875C270.01 31.1875 269.542 31.0703 269.078 30.8359C268.62 30.5964 268.224 30.2448 267.891 29.7812V31H265.852ZM268.031 26.6719C268.031 27.5312 268.167 28.1667 268.438 28.5781C268.818 29.1615 269.323 29.4531 269.953 29.4531C270.438 29.4531 270.849 29.2474 271.188 28.8359C271.531 28.4193 271.703 27.7656 271.703 26.875C271.703 25.9271 271.531 25.2448 271.188 24.8281C270.844 24.4062 270.404 24.1953 269.867 24.1953C269.341 24.1953 268.904 24.401 268.555 24.8125C268.206 25.2188 268.031 25.8385 268.031 26.6719ZM275.219 26.7344C275.219 26.0052 275.398 25.2995 275.758 24.6172C276.117 23.9349 276.625 23.4141 277.281 23.0547C277.943 22.6953 278.68 22.5156 279.492 22.5156C280.747 22.5156 281.776 22.9245 282.578 23.7422C283.38 24.5547 283.781 25.5833 283.781 26.8281C283.781 28.0833 283.375 29.125 282.562 29.9531C281.755 30.776 280.737 31.1875 279.508 31.1875C278.747 31.1875 278.021 31.0156 277.328 30.6719C276.641 30.3281 276.117 29.8255 275.758 29.1641C275.398 28.4974 275.219 27.6875 275.219 26.7344ZM277.469 26.8516C277.469 27.6745 277.664 28.3047 278.055 28.7422C278.445 29.1797 278.927 29.3984 279.5 29.3984C280.073 29.3984 280.552 29.1797 280.938 28.7422C281.328 28.3047 281.523 27.6693 281.523 26.8359C281.523 26.0234 281.328 25.3984 280.938 24.9609C280.552 24.5234 280.073 24.3047 279.5 24.3047C278.927 24.3047 278.445 24.5234 278.055 24.9609C277.664 25.3984 277.469 26.0286 277.469 26.8516ZM285 26.7344C285 26.0052 285.18 25.2995 285.539 24.6172C285.898 23.9349 286.406 23.4141 287.062 23.0547C287.724 22.6953 288.461 22.5156 289.273 22.5156C290.529 22.5156 291.557 22.9245 292.359 23.7422C293.161 24.5547 293.562 25.5833 293.562 26.8281C293.562 28.0833 293.156 29.125 292.344 29.9531C291.536 30.776 290.518 31.1875 289.289 31.1875C288.529 31.1875 287.802 31.0156 287.109 30.6719C286.422 30.3281 285.898 29.8255 285.539 29.1641C285.18 28.4974 285 27.6875 285 26.7344ZM287.25 26.8516C287.25 27.6745 287.445 28.3047 287.836 28.7422C288.227 29.1797 288.708 29.3984 289.281 29.3984C289.854 29.3984 290.333 29.1797 290.719 28.7422C291.109 28.3047 291.305 27.6693 291.305 26.8359C291.305 26.0234 291.109 25.3984 290.719 24.9609C290.333 24.5234 289.854 24.3047 289.281 24.3047C288.708 24.3047 288.227 24.5234 287.836 24.9609C287.445 25.3984 287.25 26.0286 287.25 26.8516ZM295.211 31V19.5469H297.406V25.625L299.977 22.7031H302.68L299.844 25.7344L302.883 31H300.516L298.43 27.2734L297.406 28.3438V31H295.211Z" fill="#093045"/>
<rect x="0.5" y="0.5" width="387" height="49" rx="6.5" stroke="#979797"/>
</svg>
