<svg width="388" height="50" viewBox="0 0 388 50" fill="none" xmlns="http://www.w3.org/2000/svg">
<rect x="0.5" y="0.5" width="387" height="49" rx="6.5" fill="white"/>
<path fill-rule="evenodd" clip-rule="evenodd" d="M117.27 25.2614C117.27 24.4459 117.197 23.6618 117.061 22.9091H106.23V27.3575H112.419C112.152 28.795 111.342 30.013 110.124 30.8284V33.7139H113.841C116.015 31.7118 117.27 28.7637 117.27 25.2614Z" fill="#4285F4"/>
<path fill-rule="evenodd" clip-rule="evenodd" d="M106.23 36.5C109.335 36.5 111.938 35.4702 113.841 33.7139L110.124 30.8284C109.095 31.5184 107.777 31.9261 106.23 31.9261C103.235 31.9261 100.7 29.9032 99.7952 27.185H95.9532V30.1645C97.8454 33.923 101.735 36.5 106.23 36.5Z" fill="#34A853"/>
<path fill-rule="evenodd" clip-rule="evenodd" d="M99.7952 27.185C99.5652 26.495 99.4345 25.7579 99.4345 25C99.4345 24.242 99.5652 23.505 99.7952 22.815V19.8354H95.9532C95.1743 21.3879 94.73 23.1443 94.73 25C94.73 26.8557 95.1743 28.612 95.9532 30.1645L99.7952 27.185Z" fill="#FBBC05"/>
<path fill-rule="evenodd" clip-rule="evenodd" d="M106.23 18.0739C107.918 18.0739 109.434 18.6541 110.626 19.7936L113.925 16.4952C111.933 14.6395 109.33 13.5 106.23 13.5C101.735 13.5 97.8454 16.077 95.9532 19.8355L99.7952 22.815C100.7 20.0968 103.235 18.0739 106.23 18.0739Z" fill="#EA4335"/>
<path d="M135.762 26.7891L138.004 27.5C137.661 28.75 137.088 29.6797 136.286 30.2891C135.489 30.8932 134.476 31.1953 133.247 31.1953C131.726 31.1953 130.476 30.6771 129.497 29.6406C128.517 28.599 128.028 27.1771 128.028 25.375C128.028 23.4688 128.52 21.9896 129.504 20.9375C130.489 19.8802 131.783 19.3516 133.387 19.3516C134.788 19.3516 135.926 19.7656 136.801 20.5938C137.322 21.0833 137.713 21.7865 137.973 22.7031L135.684 23.25C135.549 22.6562 135.265 22.1875 134.832 21.8438C134.405 21.5 133.885 21.3281 133.27 21.3281C132.421 21.3281 131.731 21.6328 131.2 22.2422C130.674 22.8516 130.411 23.8385 130.411 25.2031C130.411 26.651 130.671 27.6823 131.192 28.2969C131.713 28.9115 132.39 29.2188 133.223 29.2188C133.838 29.2188 134.366 29.0234 134.809 28.6328C135.252 28.2422 135.569 27.6276 135.762 26.7891ZM139.473 26.7344C139.473 26.0052 139.653 25.2995 140.012 24.6172C140.372 23.9349 140.879 23.4141 141.536 23.0547C142.197 22.6953 142.934 22.5156 143.747 22.5156C145.002 22.5156 146.03 22.9245 146.832 23.7422C147.635 24.5547 148.036 25.5833 148.036 26.8281C148.036 28.0833 147.629 29.125 146.817 29.9531C146.01 30.776 144.991 31.1875 143.762 31.1875C143.002 31.1875 142.275 31.0156 141.582 30.6719C140.895 30.3281 140.372 29.8255 140.012 29.1641C139.653 28.4974 139.473 27.6875 139.473 26.7344ZM141.723 26.8516C141.723 27.6745 141.918 28.3047 142.309 28.7422C142.7 29.1797 143.181 29.3984 143.754 29.3984C144.327 29.3984 144.806 29.1797 145.192 28.7422C145.582 28.3047 145.778 27.6693 145.778 26.8359C145.778 26.0234 145.582 25.3984 145.192 24.9609C144.806 24.5234 144.327 24.3047 143.754 24.3047C143.181 24.3047 142.7 24.5234 142.309 24.9609C141.918 25.3984 141.723 26.0286 141.723 26.8516ZM157.309 31H155.114V26.7656C155.114 25.8698 155.067 25.2917 154.973 25.0312C154.879 24.7656 154.726 24.5599 154.512 24.4141C154.304 24.2682 154.051 24.1953 153.754 24.1953C153.374 24.1953 153.033 24.2995 152.731 24.5078C152.429 24.7161 152.221 24.9922 152.106 25.3359C151.997 25.6797 151.942 26.3151 151.942 27.2422V31H149.747V22.7031H151.786V23.9219C152.51 22.9844 153.421 22.5156 154.52 22.5156C155.004 22.5156 155.447 22.6042 155.848 22.7812C156.249 22.9531 156.551 23.1745 156.754 23.4453C156.963 23.7161 157.106 24.0234 157.184 24.3672C157.267 24.7109 157.309 25.2031 157.309 25.8438V31ZM163.348 22.7031V24.4531H161.848V27.7969C161.848 28.474 161.861 28.8698 161.887 28.9844C161.918 29.0938 161.984 29.1849 162.082 29.2578C162.187 29.3307 162.312 29.3672 162.457 29.3672C162.661 29.3672 162.955 29.2969 163.34 29.1562L163.528 30.8594C163.017 31.0781 162.439 31.1875 161.793 31.1875C161.398 31.1875 161.041 31.1224 160.723 30.9922C160.405 30.8568 160.171 30.6849 160.02 30.4766C159.874 30.263 159.773 29.9766 159.715 29.6172C159.668 29.362 159.645 28.8464 159.645 28.0703V24.4531H158.637V22.7031H159.645V21.0547L161.848 19.7734V22.7031H163.348ZM164.872 21.5781V19.5469H167.067V21.5781H164.872ZM164.872 31V22.7031H167.067V31H164.872ZM176.872 31H174.676V26.7656C174.676 25.8698 174.629 25.2917 174.536 25.0312C174.442 24.7656 174.288 24.5599 174.075 24.4141C173.866 24.2682 173.614 24.1953 173.317 24.1953C172.937 24.1953 172.596 24.2995 172.293 24.5078C171.991 24.7161 171.783 24.9922 171.668 25.3359C171.559 25.6797 171.504 26.3151 171.504 27.2422V31H169.309V22.7031H171.348V23.9219C172.072 22.9844 172.984 22.5156 174.082 22.5156C174.567 22.5156 175.01 22.6042 175.411 22.7812C175.812 22.9531 176.114 23.1745 176.317 23.4453C176.525 23.7161 176.668 24.0234 176.747 24.3672C176.83 24.7109 176.872 25.2031 176.872 25.8438V31ZM184.567 31V29.7578C184.265 30.2005 183.866 30.5495 183.372 30.8047C182.882 31.0599 182.364 31.1875 181.817 31.1875C181.26 31.1875 180.76 31.0651 180.317 30.8203C179.874 30.5755 179.554 30.2318 179.356 29.7891C179.158 29.3464 179.059 28.7344 179.059 27.9531V22.7031H181.254V26.5156C181.254 27.6823 181.293 28.3984 181.372 28.6641C181.455 28.9245 181.603 29.1328 181.817 29.2891C182.03 29.4401 182.301 29.5156 182.629 29.5156C183.004 29.5156 183.34 29.4141 183.637 29.2109C183.934 29.0026 184.137 28.7474 184.247 28.4453C184.356 28.138 184.411 27.3906 184.411 26.2031V22.7031H186.606V31H184.567ZM193.692 28.3594L195.879 28.7266C195.598 29.5286 195.153 30.1406 194.543 30.5625C193.939 30.9792 193.181 31.1875 192.27 31.1875C190.827 31.1875 189.76 30.7161 189.067 29.7734C188.52 29.0182 188.247 28.0651 188.247 26.9141C188.247 25.5391 188.606 24.4635 189.325 23.6875C190.043 22.9062 190.952 22.5156 192.051 22.5156C193.286 22.5156 194.26 22.9245 194.973 23.7422C195.687 24.5547 196.028 25.8021 195.997 27.4844H190.497C190.512 28.1354 190.689 28.6432 191.028 29.0078C191.366 29.3672 191.788 29.5469 192.293 29.5469C192.637 29.5469 192.926 29.4531 193.161 29.2656C193.395 29.0781 193.572 28.776 193.692 28.3594ZM193.817 26.1406C193.801 25.5052 193.637 25.0234 193.325 24.6953C193.012 24.362 192.632 24.1953 192.184 24.1953C191.705 24.1953 191.309 24.3698 190.997 24.7188C190.684 25.0677 190.53 25.5417 190.536 26.1406H193.817ZM203.793 31L201.168 22.7031H203.301L204.856 28.1406L206.286 22.7031H208.403L209.786 28.1406L211.372 22.7031H213.536L210.872 31H208.762L207.332 25.6641L205.926 31H203.793ZM214.7 21.5781V19.5469H216.895V21.5781H214.7ZM214.7 31V22.7031H216.895V31H214.7ZM222.957 22.7031V24.4531H221.457V27.7969C221.457 28.474 221.471 28.8698 221.497 28.9844C221.528 29.0938 221.593 29.1849 221.692 29.2578C221.796 29.3307 221.921 29.3672 222.067 29.3672C222.27 29.3672 222.564 29.2969 222.95 29.1562L223.137 30.8594C222.627 31.0781 222.049 31.1875 221.403 31.1875C221.007 31.1875 220.65 31.1224 220.332 30.9922C220.015 30.8568 219.78 30.6849 219.629 30.4766C219.484 30.263 219.382 29.9766 219.325 29.6172C219.278 29.362 219.254 28.8464 219.254 28.0703V24.4531H218.247V22.7031H219.254V21.0547L221.457 19.7734V22.7031H222.957ZM226.668 19.5469V23.7578C227.377 22.9297 228.223 22.5156 229.207 22.5156C229.713 22.5156 230.168 22.6094 230.575 22.7969C230.981 22.9844 231.286 23.224 231.489 23.5156C231.697 23.8073 231.838 24.1302 231.911 24.4844C231.989 24.8385 232.028 25.388 232.028 26.1328V31H229.832V26.6172C229.832 25.7474 229.791 25.1953 229.707 24.9609C229.624 24.7266 229.476 24.5417 229.262 24.4062C229.054 24.2656 228.791 24.1953 228.473 24.1953C228.109 24.1953 227.783 24.2839 227.497 24.4609C227.21 24.638 226.999 24.9062 226.864 25.2656C226.734 25.6198 226.668 26.1458 226.668 26.8438V31H224.473V19.5469H226.668ZM244.059 26.7891V24.8594H249.043V29.4219C248.559 29.8906 247.856 30.3047 246.934 30.6641C246.017 31.0182 245.088 31.1953 244.145 31.1953C242.947 31.1953 241.903 30.9453 241.012 30.4453C240.122 29.9401 239.452 29.2214 239.004 28.2891C238.556 27.3516 238.332 26.3333 238.332 25.2344C238.332 24.0417 238.582 22.9818 239.082 22.0547C239.582 21.1276 240.314 20.4167 241.278 19.9219C242.012 19.5417 242.926 19.3516 244.02 19.3516C245.442 19.3516 246.551 19.651 247.348 20.25C248.15 20.8438 248.666 21.6667 248.895 22.7188L246.598 23.1484C246.437 22.5859 246.132 22.1432 245.684 21.8203C245.241 21.4922 244.687 21.3281 244.02 21.3281C243.01 21.3281 242.205 21.6484 241.606 22.2891C241.012 22.9297 240.715 23.8802 240.715 25.1406C240.715 26.5 241.017 27.5208 241.622 28.2031C242.226 28.8802 243.017 29.2188 243.997 29.2188C244.481 29.2188 244.965 29.125 245.45 28.9375C245.939 28.7448 246.359 28.513 246.707 28.2422V26.7891H244.059ZM250.661 26.7344C250.661 26.0052 250.84 25.2995 251.2 24.6172C251.559 23.9349 252.067 23.4141 252.723 23.0547C253.385 22.6953 254.122 22.5156 254.934 22.5156C256.189 22.5156 257.218 22.9245 258.02 23.7422C258.822 24.5547 259.223 25.5833 259.223 26.8281C259.223 28.0833 258.817 29.125 258.004 29.9531C257.197 30.776 256.179 31.1875 254.95 31.1875C254.189 31.1875 253.463 31.0156 252.77 30.6719C252.082 30.3281 251.559 29.8255 251.2 29.1641C250.84 28.4974 250.661 27.6875 250.661 26.7344ZM252.911 26.8516C252.911 27.6745 253.106 28.3047 253.497 28.7422C253.887 29.1797 254.369 29.3984 254.942 29.3984C255.515 29.3984 255.994 29.1797 256.379 28.7422C256.77 28.3047 256.965 27.6693 256.965 26.8359C256.965 26.0234 256.77 25.3984 256.379 24.9609C255.994 24.5234 255.515 24.3047 254.942 24.3047C254.369 24.3047 253.887 24.5234 253.497 24.9609C253.106 25.3984 252.911 26.0286 252.911 26.8516ZM260.442 26.7344C260.442 26.0052 260.622 25.2995 260.981 24.6172C261.34 23.9349 261.848 23.4141 262.504 23.0547C263.166 22.6953 263.903 22.5156 264.715 22.5156C265.971 22.5156 266.999 22.9245 267.801 23.7422C268.603 24.5547 269.004 25.5833 269.004 26.8281C269.004 28.0833 268.598 29.125 267.786 29.9531C266.978 30.776 265.96 31.1875 264.731 31.1875C263.971 31.1875 263.244 31.0156 262.551 30.6719C261.864 30.3281 261.34 29.8255 260.981 29.1641C260.622 28.4974 260.442 27.6875 260.442 26.7344ZM262.692 26.8516C262.692 27.6745 262.887 28.3047 263.278 28.7422C263.668 29.1797 264.15 29.3984 264.723 29.3984C265.296 29.3984 265.775 29.1797 266.161 28.7422C266.551 28.3047 266.747 27.6693 266.747 26.8359C266.747 26.0234 266.551 25.3984 266.161 24.9609C265.775 24.5234 265.296 24.3047 264.723 24.3047C264.15 24.3047 263.668 24.5234 263.278 24.9609C262.887 25.3984 262.692 26.0286 262.692 26.8516ZM270.528 31.5469L273.036 31.8516C273.077 32.1432 273.174 32.3438 273.325 32.4531C273.533 32.6094 273.861 32.6875 274.309 32.6875C274.882 32.6875 275.312 32.6016 275.598 32.4297C275.791 32.3151 275.937 32.1302 276.036 31.875C276.103 31.6927 276.137 31.3568 276.137 30.8672V29.6562C275.481 30.5521 274.653 31 273.653 31C272.538 31 271.655 30.5286 271.004 29.5859C270.494 28.8411 270.239 27.9141 270.239 26.8047C270.239 25.4141 270.572 24.3516 271.239 23.6172C271.911 22.8828 272.744 22.5156 273.739 22.5156C274.765 22.5156 275.611 22.9661 276.278 23.8672V22.7031H278.332V30.1484C278.332 31.1276 278.252 31.8594 278.09 32.3438C277.929 32.8281 277.702 33.2083 277.411 33.4844C277.119 33.7604 276.728 33.9766 276.239 34.1328C275.754 34.2891 275.14 34.3672 274.395 34.3672C272.989 34.3672 271.991 34.125 271.403 33.6406C270.814 33.1615 270.52 32.5521 270.52 31.8125C270.52 31.7396 270.523 31.651 270.528 31.5469ZM272.489 26.6797C272.489 27.5599 272.658 28.2057 272.997 28.6172C273.34 29.0234 273.762 29.2266 274.262 29.2266C274.799 29.2266 275.252 29.0182 275.622 28.6016C275.991 28.1797 276.176 27.5573 276.176 26.7344C276.176 25.875 275.999 25.237 275.645 24.8203C275.291 24.4036 274.843 24.1953 274.301 24.1953C273.775 24.1953 273.34 24.401 272.997 24.8125C272.658 25.2188 272.489 25.8411 272.489 26.6797ZM280.512 31V19.5469H282.707V31H280.512ZM289.77 28.3594L291.957 28.7266C291.676 29.5286 291.231 30.1406 290.622 30.5625C290.017 30.9792 289.26 31.1875 288.348 31.1875C286.905 31.1875 285.838 30.7161 285.145 29.7734C284.598 29.0182 284.325 28.0651 284.325 26.9141C284.325 25.5391 284.684 24.4635 285.403 23.6875C286.122 22.9062 287.03 22.5156 288.129 22.5156C289.364 22.5156 290.338 22.9245 291.051 23.7422C291.765 24.5547 292.106 25.8021 292.075 27.4844H286.575C286.59 28.1354 286.767 28.6432 287.106 29.0078C287.444 29.3672 287.866 29.5469 288.372 29.5469C288.715 29.5469 289.004 29.4531 289.239 29.2656C289.473 29.0781 289.65 28.776 289.77 28.3594ZM289.895 26.1406C289.879 25.5052 289.715 25.0234 289.403 24.6953C289.09 24.362 288.71 24.1953 288.262 24.1953C287.783 24.1953 287.387 24.3698 287.075 24.7188C286.762 25.0677 286.609 25.5417 286.614 26.1406H289.895Z" fill="#093045"/>
<rect x="0.5" y="0.5" width="387" height="49" rx="6.5" stroke="#979797"/>
</svg>
