<svg width="33" height="33" viewBox="0 0 33 33" fill="none" xmlns="http://www.w3.org/2000/svg">
<g clip-path="url(#clip0_508_2504)">
<path d="M22.2629 4.08002C19.9152 4.08002 17.6619 5.18162 16.1912 6.92242C14.7205 5.18162 12.4672 4.08002 10.1195 4.08002C5.96377 4.08002 2.69855 7.37122 2.69855 11.56C2.69855 16.7008 7.28605 20.8896 14.2348 27.2544L16.1912 29.036L18.1476 27.2408C25.0963 20.8896 29.6838 16.7008 29.6838 11.56C29.6838 7.37122 26.4186 4.08002 22.2629 4.08002ZM16.3261 25.228L16.1912 25.364L16.0563 25.228C9.63377 19.3664 5.39708 15.4904 5.39708 11.56C5.39708 8.84002 7.42097 6.80002 10.1195 6.80002C12.1974 6.80002 14.2213 8.14642 14.9364 10.0096H17.4595C18.1611 8.14642 20.185 6.80002 22.2629 6.80002C24.9614 6.80002 26.9853 8.84002 26.9853 11.56C26.9853 15.4904 22.7486 19.3664 16.3261 25.228Z" fill="#204219"/>
</g>
<defs>
<clipPath id="clip0_508_2504">
<rect width="32.3824" height="32.64" rx="7" fill="white"/>
</clipPath>
</defs>
</svg>
