<svg width="116" height="52" viewBox="0 0 116 52" fill="none" xmlns="http://www.w3.org/2000/svg">
<path d="M20.3125 18.075C20.4375 18.2375 27.487 27.2375 27.487 27.2375V34.75C27.487 35.4375 28.0495 36 28.7494 36H31.2618C31.9492 36 32.5242 35.4375 32.5242 34.75V27.225C32.5242 27.225 39.3862 18.45 39.7112 18.05C40.0362 17.65 39.9987 17.25 39.9987 17.25C39.9987 16.5625 39.4362 16 38.7363 16H21.2624C20.5 16 20 16.6 20 17.25C20 17.5 20.075 17.8 20.3125 18.075Z" fill="black"/>
<path d="M51.8623 32.5H54.1211V27.3232H59.4473V25.4775H54.1211V21.7246H59.9482V19.8174H51.8623V32.5ZM62.207 32.5H64.3867V22.9111H62.207V32.5ZM63.3057 21.3115C63.6631 21.3115 63.9678 21.1855 64.2197 20.9336C64.4717 20.6816 64.5977 20.3799 64.5977 20.0283C64.5977 19.6709 64.4717 19.3662 64.2197 19.1143C63.9678 18.8623 63.6631 18.7363 63.3057 18.7363C62.9482 18.7363 62.6406 18.8623 62.3828 19.1143C62.1309 19.3662 62.0049 19.6709 62.0049 20.0283C62.0049 20.3799 62.1309 20.6816 62.3828 20.9336C62.6406 21.1855 62.9482 21.3115 63.3057 21.3115ZM67.1289 32.5H69.3174V19.2021H67.1289V32.5ZM75.8037 32.5527C76.0146 32.5527 76.2168 32.541 76.4102 32.5176C76.6094 32.5 76.7852 32.4795 76.9375 32.4561V30.7686C76.8086 30.7803 76.6914 30.792 76.5859 30.8037C76.4863 30.8096 76.3604 30.8125 76.208 30.8125C75.7568 30.8125 75.4287 30.7041 75.2236 30.4873C75.0244 30.2705 74.9248 29.9248 74.9248 29.4502V24.5986H76.9375V22.9111H74.9248V20.5469H72.7012V22.9111H71.2158V24.5986H72.7012V29.9512C72.7012 30.877 72.9443 31.542 73.4307 31.9463C73.917 32.3506 74.708 32.5527 75.8037 32.5527ZM83.1074 32.6934C83.7578 32.6934 84.3291 32.6113 84.8213 32.4473C85.3135 32.2773 85.7295 32.0576 86.0693 31.7881C86.415 31.5127 86.6875 31.2168 86.8867 30.9004C87.0918 30.5781 87.2324 30.2617 87.3086 29.9512L87.3262 29.8633H85.252L85.2256 29.9248C85.1611 30.0771 85.0381 30.2354 84.8564 30.3994C84.6807 30.5576 84.4521 30.6953 84.1709 30.8125C83.8896 30.9238 83.5527 30.9795 83.1602 30.9795C82.6562 30.9795 82.2197 30.8682 81.8506 30.6455C81.4873 30.4229 81.2061 30.1006 81.0068 29.6787C80.8076 29.2568 80.708 28.7529 80.708 28.167V27.2881C80.708 26.6729 80.8076 26.1543 81.0068 25.7324C81.2119 25.3047 81.4873 24.9824 81.833 24.7656C82.1846 24.543 82.5859 24.4316 83.0371 24.4316C83.4824 24.4316 83.875 24.5371 84.2148 24.748C84.5605 24.959 84.8301 25.2754 85.0234 25.6973C85.2168 26.1191 85.3135 26.6494 85.3135 27.2881V28.1582L86.3506 26.7871H79.627V28.2549H87.4229V27.5342C87.4229 26.5674 87.2441 25.7236 86.8867 25.0029C86.5293 24.2822 86.0195 23.7227 85.3574 23.3242C84.7012 22.9199 83.9189 22.7178 83.0107 22.7178C82.1025 22.7178 81.3115 22.9258 80.6377 23.3418C79.9639 23.7578 79.4424 24.3408 79.0732 25.0908C78.71 25.835 78.5283 26.7109 78.5283 27.7188V27.7275C78.5283 28.7471 78.7129 29.6289 79.082 30.373C79.4512 31.1113 79.9756 31.6826 80.6553 32.0869C81.3408 32.4912 82.1582 32.6934 83.1074 32.6934ZM89.585 32.5H91.7646V26.9277C91.7646 26.4648 91.8643 26.0664 92.0635 25.7324C92.2627 25.3984 92.541 25.1406 92.8984 24.959C93.2617 24.7773 93.6865 24.6865 94.1729 24.6865C94.3604 24.6865 94.542 24.6982 94.7178 24.7217C94.8994 24.7393 95.0781 24.7686 95.2539 24.8096V22.8496C95.1426 22.8203 95.0078 22.7969 94.8496 22.7793C94.6973 22.7617 94.5391 22.7529 94.375 22.7529C93.748 22.7529 93.2207 22.8965 92.793 23.1836C92.3711 23.4648 92.0781 23.8662 91.9141 24.3877H91.7646V22.9111H89.585V32.5Z" fill="black"/>
<rect x="1" y="1" width="114" height="50" rx="6" stroke="#203A10" stroke-width="2"/>
</svg>
