<svg width="38" height="32" viewBox="0 0 38 32" fill="none" xmlns="http://www.w3.org/2000/svg">
<path d="M33.3405 8.36958C33.3551 8.70398 33.3551 9.02318 33.3551 9.35758C33.3698 19.496 25.9211 31.2 12.2993 31.2C8.28163 31.2 4.33732 29.9992 0.950195 27.7496C1.53671 27.8256 2.12323 27.856 2.70974 27.856C6.03821 27.856 9.27871 26.7008 11.9034 24.5576C8.73618 24.4968 5.95024 22.3536 4.98249 19.2224C6.09686 19.4504 7.24057 19.4048 8.32562 19.0856C4.87985 18.3864 2.40182 15.24 2.38716 11.5768C2.38716 11.5464 2.38716 11.516 2.38716 11.4856C3.41356 12.0784 4.57193 12.4128 5.74496 12.4432C2.50446 10.1936 1.49272 5.70957 3.45755 2.19836C7.22591 7.00157 12.7685 9.90478 18.7216 10.224C18.1204 7.56397 18.9415 4.76716 20.8624 2.88236C23.8389 -0.0208513 28.5311 0.131149 31.3463 3.21676C33.0032 2.88236 34.6015 2.24396 36.0531 1.34715C35.4959 3.12556 34.3376 4.63036 32.798 5.58797C34.2642 5.40557 35.7012 4.99516 37.0502 4.38716C36.0531 5.93757 34.7921 7.27517 33.3405 8.36958Z" fill="black"/>
</svg>
