<svg width="178" height="52" viewBox="0 0 178 52" fill="none" xmlns="http://www.w3.org/2000/svg">
<rect width="178" height="52" rx="7" fill="#97B05D"/>
<path fill-rule="evenodd" clip-rule="evenodd" d="M23.3108 40.4386C23.5071 40.5941 23.7638 40.6515 24.0078 40.5946L35.2122 37.9819C35.5837 37.8953 35.8464 37.5647 35.8464 37.1839V21.9038C35.8464 21.6507 35.7294 21.4119 35.5292 21.2567C35.329 21.1014 35.0683 21.0472 34.8226 21.1097L23.6183 23.9599C23.2545 24.0524 23 24.3793 23 24.7539V39.7966C23 40.0467 23.1144 40.2832 23.3108 40.4386ZM24.6421 38.7636V25.3908L34.2044 22.9583V36.5339L24.6421 38.7636Z" fill="#093045"/>
<path fill-rule="evenodd" clip-rule="evenodd" d="M45.4643 40.4386C45.6607 40.5941 45.9174 40.6515 46.1614 40.5946L57.3658 37.9819C57.7372 37.8953 58 37.5647 58 37.1839V21.9038C58 21.6507 57.8829 21.4119 57.6828 21.2567C57.4826 21.1014 57.2218 21.0472 56.9762 21.1097L45.7718 23.9599C45.4081 24.0524 45.1536 24.3793 45.1536 24.7539V39.7966C45.1536 40.0467 45.268 40.2832 45.4643 40.4386ZM46.7956 38.7636V25.3908L56.3579 22.9583V36.5339L46.7956 38.7636Z" fill="#093045"/>
<path fill-rule="evenodd" clip-rule="evenodd" d="M46.5443 40.4396C46.3464 40.595 46.0878 40.6518 45.8424 40.5939L34.7763 37.9812C34.4047 37.8935 34.1423 37.5636 34.1423 37.1839V21.9038C34.1423 21.6502 34.2605 21.4109 34.4623 21.2557C34.6641 21.1005 34.9268 21.0469 35.1739 21.1105L46.2399 23.9607C46.6037 24.0544 46.8577 24.3805 46.8577 24.7539V39.7966C46.8577 40.0473 46.7422 40.2842 46.5443 40.4396ZM45.2084 38.7596V25.3881L35.7916 22.9627V36.5364L45.2084 38.7596Z" fill="#093045"/>
<path fill-rule="evenodd" clip-rule="evenodd" d="M45.1065 30.9266C47.2632 28.4019 51.5768 23.3526 51.5768 19.0439C51.5768 14.8134 48.1435 11.3839 43.9083 11.3839C39.673 11.3839 36.2397 14.8134 36.2397 19.0439C36.2397 23.2775 40.978 28.9163 43.0055 31.329C43.5573 31.9857 43.9083 32.4034 43.9083 32.4887C43.9083 32.3292 44.3875 31.7681 45.1065 30.9266ZM43.9206 21.6761C45.3692 21.6761 46.5434 20.5031 46.5434 19.0563C46.5434 17.6094 45.3692 16.4364 43.9206 16.4364C42.4721 16.4364 41.2979 17.6094 41.2979 19.0563C41.2979 20.5031 42.4721 21.6761 43.9206 21.6761Z" fill="#97B05D"/>
<path fill-rule="evenodd" clip-rule="evenodd" d="M47.7605 24.771C49.0671 22.7195 49.9294 20.7124 49.9294 19.0439C49.9294 15.7222 47.2337 13.0294 43.9083 13.0294C40.5828 13.0294 37.8871 15.7222 37.8871 19.0439C37.8871 20.6516 38.8313 22.7721 40.2491 24.9812C41.4627 26.8719 42.8738 28.6054 43.8876 29.8184C44.9696 28.5517 46.496 26.7563 47.7605 24.771ZM44.9561 31.1027C45.0049 31.0454 45.0551 30.9867 45.1064 30.9266C47.2632 28.4019 51.5768 23.3526 51.5768 19.0439C51.5768 14.8134 48.1435 11.3839 43.9083 11.3839C39.673 11.3839 36.2397 14.8134 36.2397 19.0439C36.2397 23.1524 40.7021 28.5842 42.8188 31.1067C42.8832 31.1836 42.9455 31.2577 43.0055 31.329C43.5573 31.9857 43.9083 32.4034 43.9083 32.4887C43.9083 32.3406 44.3215 31.8463 44.9561 31.1027ZM48.1908 19.0563C48.1908 21.4119 46.279 23.3216 43.9206 23.3216C41.5623 23.3216 39.6505 21.4119 39.6505 19.0563C39.6505 16.7006 41.5623 14.7909 43.9206 14.7909C46.279 14.7909 48.1908 16.7006 48.1908 19.0563ZM46.5434 19.0563C46.5434 20.5031 45.3692 21.6761 43.9206 21.6761C42.4721 21.6761 41.2979 20.5031 41.2979 19.0563C41.2979 17.6094 42.4721 16.4364 43.9206 16.4364C45.3692 16.4364 46.5434 17.6094 46.5434 19.0563Z" fill="#093045"/>
<path d="M72.8809 32.5H76.1416L80.3779 19.8174H77.3896L74.5859 29.5645H74.4365L71.6328 19.8174H68.6533L72.8809 32.5ZM82.2764 32.5H84.8428V22.832H82.2764V32.5ZM83.5596 21.3643C83.958 21.3643 84.2979 21.2266 84.5791 20.9512C84.8604 20.6699 85.001 20.333 85.001 19.9404C85.001 19.542 84.8604 19.2051 84.5791 18.9297C84.2979 18.6543 83.958 18.5166 83.5596 18.5166C83.167 18.5166 82.8271 18.6543 82.54 18.9297C82.2588 19.2051 82.1182 19.542 82.1182 19.9404C82.1182 20.333 82.2588 20.6699 82.54 20.9512C82.8271 21.2266 83.167 21.3643 83.5596 21.3643ZM91.6455 32.7021C92.3486 32.7021 92.958 32.6143 93.4736 32.4385C93.9951 32.2568 94.4287 32.0225 94.7744 31.7354C95.126 31.4482 95.4014 31.1406 95.6006 30.8125C95.7998 30.4785 95.9375 30.1592 96.0137 29.8545L96.0312 29.7578L93.6494 29.7666L93.623 29.8193C93.5645 29.9424 93.4531 30.0801 93.2891 30.2324C93.1309 30.3789 92.9199 30.5078 92.6562 30.6191C92.3926 30.7305 92.0732 30.7861 91.6982 30.7861C91.2354 30.7861 90.8369 30.6836 90.5029 30.4785C90.1689 30.2734 89.9111 29.9775 89.7295 29.5908C89.5479 29.2041 89.457 28.7412 89.457 28.2021V27.165C89.457 26.6025 89.5479 26.1279 89.7295 25.7412C89.917 25.3486 90.1689 25.0527 90.4854 24.8535C90.8018 24.6484 91.168 24.5459 91.584 24.5459C92 24.5459 92.3633 24.6455 92.6738 24.8447C92.9902 25.0381 93.2363 25.3281 93.4121 25.7148C93.5879 26.1016 93.6758 26.585 93.6758 27.165V28.1934L94.8799 26.6729H88.2002V28.2812H96.1104V27.4814C96.1104 26.5029 95.9258 25.6504 95.5566 24.9238C95.1875 24.1973 94.6602 23.6348 93.9746 23.2363C93.2891 22.832 92.4775 22.6299 91.54 22.6299C90.6025 22.6299 89.7852 22.8379 89.0879 23.2539C88.3965 23.6641 87.8604 24.2471 87.4795 25.0029C87.1045 25.7588 86.917 26.6494 86.917 27.6748V27.6836C86.917 28.7148 87.1074 29.6084 87.4883 30.3643C87.8691 31.1143 88.4111 31.6914 89.1143 32.0957C89.8232 32.5 90.667 32.7021 91.6455 32.7021ZM99.8281 32.5H102.509L104.231 25.75H104.381L106.112 32.5H108.837L111.412 22.832H108.872L107.431 29.8457H107.272L105.567 22.832H103.124L101.428 29.8457H101.27L99.8369 22.832H97.2441L99.8281 32.5ZM118.039 32.5H120.403V23.8691H121.704L119.173 20.1689L123.822 32.5H125.492L130.15 20.1689L127.619 23.8691H128.92V32.5H131.284V19.8174H128.243L124.736 29.0986H124.587L121.071 19.8174H118.039V32.5ZM136.689 32.6494C137.105 32.6494 137.492 32.5938 137.85 32.4824C138.213 32.3652 138.529 32.2012 138.799 31.9902C139.074 31.7734 139.294 31.5156 139.458 31.2168H139.616V32.5H142.147V25.8994C142.147 25.2139 141.989 24.6279 141.673 24.1416C141.362 23.6494 140.908 23.2744 140.311 23.0166C139.713 22.7588 138.986 22.6299 138.131 22.6299C137.322 22.6299 136.61 22.7471 135.995 22.9814C135.386 23.2158 134.899 23.5439 134.536 23.9658C134.179 24.3877 133.968 24.8828 133.903 25.4512L133.895 25.5391H136.268L136.276 25.5039C136.376 25.2168 136.569 24.9941 136.856 24.8359C137.149 24.6719 137.527 24.5898 137.99 24.5898C138.518 24.5898 138.919 24.7041 139.194 24.9326C139.476 25.1611 139.616 25.4863 139.616 25.9082V28.9844C139.616 29.3242 139.525 29.6289 139.344 29.8984C139.162 30.168 138.916 30.3818 138.605 30.54C138.295 30.6982 137.94 30.7773 137.542 30.7773C137.097 30.7773 136.733 30.6719 136.452 30.4609C136.171 30.25 136.03 29.9629 136.03 29.5996V29.582C136.03 29.2305 136.165 28.9521 136.435 28.7471C136.704 28.542 137.114 28.4248 137.665 28.3955L140.882 28.1846V26.6201L137.278 26.8311C136.077 26.9014 135.151 27.1855 134.501 27.6836C133.851 28.1816 133.525 28.8643 133.525 29.7314V29.749C133.525 30.335 133.66 30.8477 133.93 31.2871C134.199 31.7207 134.571 32.0576 135.046 32.2979C135.526 32.5322 136.074 32.6494 136.689 32.6494ZM144.626 35.6992H147.192V30.9531H147.342C147.506 31.3047 147.729 31.6094 148.01 31.8672C148.297 32.1191 148.628 32.3154 149.003 32.4561C149.384 32.5908 149.797 32.6582 150.242 32.6582C151.057 32.6582 151.757 32.459 152.343 32.0605C152.929 31.6621 153.377 31.0908 153.688 30.3467C154.004 29.6025 154.162 28.7119 154.162 27.6748V27.6572C154.162 26.626 154.001 25.7412 153.679 25.0029C153.362 24.2588 152.911 23.6875 152.325 23.2891C151.739 22.8848 151.045 22.6826 150.242 22.6826C149.785 22.6826 149.369 22.75 148.994 22.8848C148.619 23.0137 148.291 23.2012 148.01 23.4473C147.734 23.6934 147.512 23.9922 147.342 24.3438H147.192V22.832H144.626V35.6992ZM149.363 30.5312C148.918 30.5312 148.528 30.417 148.194 30.1885C147.866 29.9541 147.611 29.623 147.43 29.1953C147.254 28.7676 147.166 28.2607 147.166 27.6748V27.6572C147.166 27.0596 147.254 26.5498 147.43 26.1279C147.611 25.7061 147.866 25.3809 148.194 25.1523C148.528 24.9238 148.918 24.8096 149.363 24.8096C149.814 24.8096 150.204 24.9238 150.532 25.1523C150.86 25.375 151.112 25.7002 151.288 26.1279C151.464 26.5557 151.552 27.0654 151.552 27.6572V27.6748C151.552 28.2607 151.464 28.7676 151.288 29.1953C151.112 29.623 150.86 29.9541 150.532 30.1885C150.21 30.417 149.82 30.5312 149.363 30.5312Z" fill="#093045"/>
</svg>
