<svg width="38" height="28" viewBox="0 0 38 28" fill="none" xmlns="http://www.w3.org/2000/svg">
<path d="M37.2173 4.86303C36.7791 3.23536 35.4957 1.95201 33.8681 1.51379C30.8944 0.699951 18.9999 0.699951 18.9999 0.699951C18.9999 0.699951 7.10541 0.699951 4.13178 1.48248C2.53541 1.9207 1.22075 3.23536 0.782534 4.86303C0 7.83666 0 14.003 0 14.003C0 14.003 0 20.2007 0.782534 23.143C1.22075 24.7707 2.50411 26.054 4.13178 26.4923C7.13671 27.3061 18.9999 27.3061 18.9999 27.3061C18.9999 27.3061 30.8944 27.3061 33.8681 26.5236C35.4957 26.0853 36.7791 24.802 37.2173 23.1743C37.9998 20.2007 37.9998 14.0343 37.9998 14.0343C37.9998 14.0343 38.0311 7.83666 37.2173 4.86303Z" fill="black"/>
</svg>
